<?xml version="1.0" encoding="UTF-8"?>
<svg width="24px" height="24px" viewBox="0 0 24 24" version="1.1" xmlns="http://www.w3.org/2000/svg" xmlns:xlink="http://www.w3.org/1999/xlink">
    <!-- Generator: Sketch 48.2 (47327) - http://www.bohemiancoding.com/sketch -->
    <title>btn</title>
    <desc>Created with Sketch.</desc>
    <defs></defs>
    <g id="Page-1" stroke="none" stroke-width="1" fill="none" fill-rule="evenodd">
        <g id="btn">
            <g id="bkg" fill="#A3E0F4" fill-rule="nonzero">
                <path d="M12,0 C5.38226087,0 0,5.38226087 0,12 C0,18.6177391 5.38226087,24 12,24 C18.6166957,24 24,18.6177391 24,12 C24,5.38226087 18.6166957,0 12,0 Z" id="Shape"></path>
            </g>
            <g id="i" transform="translate(8.347826, 5.217391)" fill="#3E3832" fill-rule="evenodd">
                <path d="M3,0 C3.551,0 4,0.48 4,1.07142857 C4,1.66392857 3.551,2.14285714 3,2.14285714 C2.447,2.14285714 2,1.66392857 2,1.07142857 C2,0.48 2.447,0 3,0 Z" id="Path"></path>
                <path d="M6.5,15 L0.5,15 C0.224,15 0,14.76 0,14.4642857 C0,14.1685714 0.224,13.9285714 0.5,13.9285714 L3,13.9285714 L3,5.35714286 L1.5,5.35714286 C1.224,5.35714286 1,5.11714286 1,4.82142857 C1,4.52571429 1.224,4.28571429 1.5,4.28571429 L3.5,4.28571429 C3.775,4.28571429 4,4.52571429 4,4.82142857 L4,13.9285714 L6.5,13.9285714 C6.775,13.9285714 7,14.1685714 7,14.4642857 C7,14.76 6.775,15 6.5,15 Z" id="Path"></path>
            </g>
            <g id="x" transform="translate(7.304348, 7.304348)" fill-rule="evenodd" stroke="#3E3832" stroke-linecap="round" stroke-width="1">
                <g id="X">
                    <path d="M0,9 L9,0" id="Stroke-5"></path>
                    <path d="M9,9 L0,0" id="Stroke-6"></path>
                </g>
            </g>
        </g>
    </g>
</svg>
