<?xml version="1.0" encoding="UTF-8"?>
<svg width="23px" height="27px" viewBox="0 0 23 27" version="1.1" xmlns="http://www.w3.org/2000/svg" xmlns:xlink="http://www.w3.org/1999/xlink">
    <!-- Generator: Sketch 48.2 (47327) - http://www.bohemiancoding.com/sketch -->
    <title>Group 5</title>
    <desc>Created with Sketch.</desc>
    <defs>
        <circle id="path-1" cx="11.5" cy="11.5" r="11.5"></circle>
        <path d="M11.5,23 C17.8512746,23 23,17.8512746 23,11.5 C23,5.14872538 17.8512746,-4.18626384 11.5,-4.18626384 C5.14872538,-4.18626384 0,5.14872538 0,11.5 C0,17.8512746 5.14872538,23 11.5,23 Z" id="path-3"></path>
        <path d="M19.2343045,8.59930404 L19.2175087,8.59930404 C19.2175087,3.85007518 15.4333942,0 10.7644922,0 C6.09622399,0 2.31210949,3.85007518 2.31210949,8.59930404 L2.31210949,8.60360484 C2.31052498,12.6595449 0,14.9785357 0,14.9785357 C0,14.9785357 2.281687,17.511993 10.7648091,17.511993 C10.7676612,17.511993 10.7705133,17.511993 10.7733654,17.511993 C10.7762175,17.511993 10.7784358,17.511993 10.781288,17.511993 C19.2650439,17.511993 21.5467309,14.9785357 21.5467309,14.9785357 C21.5467309,14.9785357 19.2343045,12.6581113 19.2343045,8.59930404" id="path-5"></path>
        <path d="M12.0091645,0.86015978 C13.8434175,1.7767698 16.5150678,4.01329177 16.5150678,6.09201861 L16.5150678,9.74847751 C16.5150678,11.64869 14.9746412,13.1891166 13.0744287,13.1891166 L0,13.1891166 L0,6.09201861 C0,4.09644331 2.41997693,1.95544438 4.21793935,0.976397623 C4.54781656,1.50667709 5.41867292,3.62087081 8.06882874,3.62087081 C10.6995236,3.62087081 11.9555636,1.3852618 12.0091645,0.86015978 Z" id="path-7"></path>
    </defs>
    <g id="Page-1" stroke="none" stroke-width="1" fill="none" fill-rule="evenodd">
        <g id="Group-5" transform="translate(0.000000, 4.000000)">
            <g id="Icon-Copy-12">
                <mask id="mask-2" fill="white">
                    <use xlink:href="#path-1"></use>
                </mask>
                <use id="Mask" fill="#C1B5D0" xlink:href="#path-1"></use>
                <mask id="mask-4" fill="white">
                    <use xlink:href="#path-3"></use>
                </mask>
                <g id="Mask-Copy"></g>
                <g id="kvinne/-forfra/-B" mask="url(#mask-4)">
                    <g transform="translate(1.455696, -3.784810)">
                        <g id="b/damme/-hår/-halvlangt">
                            <g id="hårfarge/-brunn">
                                <mask id="mask-6" fill="white">
                                    <use xlink:href="#path-5"></use>
                                </mask>
                                <use id="Mask" fill="#E57F68" xlink:href="#path-5"></use>
                                <g id="g/hårfarge/-rød" mask="url(#mask-6)" fill="#D2654C">
                                    <g transform="translate(0.000000, -0.573440)" id="hårfarge/-rød">
                                        <rect x="0" y="0" width="21.7620424" height="22.6508742"></rect>
                                    </g>
                                </g>
                            </g>
                        </g>
                        <g id="Group" transform="translate(2.112673, 4.587519)">
                            <path d="M4.22534629,10.8015351 C4.53358482,11.2697925 5.39932361,19.496955 7.9979769,19.496955 C10.5971927,19.496955 11.7706075,11.1168226 11.7706075,10.6806219 C7.79120312,8.5149468 4.22534629,10.8015351 4.22534629,10.8015351 Z" id="Combined-Shape" fill="#E7E5E2"></path>
                            <g id="b/kropp/sideprofil/-nav-ansatt" transform="translate(0.000000, 9.748478)">
                                <mask id="mask-8" fill="white">
                                    <use xlink:href="#path-7"></use>
                                </mask>
                                <use id="Mask" fill="#D8A25D" fill-rule="evenodd" xlink:href="#path-7"></use>
                                <g id="+20/-Lilla" mask="url(#mask-8)" fill-rule="evenodd" stroke-width="1">
                                    <g transform="translate(-10.092541, -5.784263)">
                                        <g>
                                            <polygon id="Fill-58" fill="#5C4378" points="0 26.6946139 39.13727 26.6946139 39.13727 0 0 0"></polygon>
                                        </g>
                                    </g>
                                </g>
                                <g id="nav-id/-kort" mask="url(#mask-8)" fill-rule="evenodd" stroke-width="1">
                                    <g transform="translate(9.480872, 5.160959)" id="NAV-Copy-2">
                                        <g transform="translate(0.000000, -0.286720)">
                                            <g id="Group-11">
                                                <g id="Navansatt-dame">
                                                    <g transform="translate(0.000000, 0.215040)">
                                                        <path d="M5.76224213,3.5123191 L0.430589332,3.5123191 C0.192648857,3.5123191 0,3.34933423 0,3.14803172 L0,0.722957132 C0,0.521654624 0.192648857,0.358399908 0.430589332,0.358399908 L5.76224213,0.358399908 C6.00018261,0.358399908 6.19315042,0.521654624 6.19315042,0.722957132 L6.19315042,3.14803172 C6.19315042,3.34933423 6.00018261,3.5123191 5.76224213,3.5123191" id="Fill-97" fill="#D2242A"></path>
                                                        <path d="M4.42594654,2.08109776 C4.42594654,2.67666492 3.84381783,3.16005679 3.12547221,3.16005679 C2.40590493,3.16005679 1.82347079,2.67666492 1.82347079,2.08109776 C1.82347079,1.48553061 2.40590493,1.00213874 3.12547221,1.00213874 C3.84381783,1.00213874 4.42594654,1.48553061 4.42594654,2.08109776" id="Fill-98" fill="#FFFFFF"></path>
                                                        <polygon id="Fill-99" fill="#FFFFFF" points="1.40815961 2.55669055 1.1858169 2.55669055 1.42341055 2.00543643 1.64628838 2.00543643"></polygon>
                                                        <path d="M3.69386055,2.00839907 L3.36732971,2.00839907 C3.34423868,2.00839907 3.46117402,2.02764359 3.46946311,2.04562202 L3.70037341,2.53686363 C3.70511003,2.54775198 3.71695158,2.55408241 3.72997729,2.55408241 L3.92802728,2.55408241 L3.72435255,2.02688393 C3.71991197,2.01523594 3.70747834,2.00839907 3.69386055,2.00839907" id="Fill-107" fill="#C52D35"></path>
                                                        <path d="M3.1835506,2.18337224 C3.1835506,2.29326856 3.16945043,2.29985221 3.16945043,2.29985221 C3.16945043,2.29985221 3.15355569,2.1945138 3.07126197,2.1945138 C2.99050645,2.1945138 2.97204805,2.24110579 2.97204805,2.27579657 C2.97204805,2.31605812 3.01332309,2.3537875 3.0363961,2.3537875 L3.1835506,2.3537875 L3.09664228,2.54395372 C3.09356588,2.55028415 3.08741307,2.55408241 3.08049117,2.55408241 L3.01357946,2.55408241 C2.94359134,2.55408241 2.76080187,2.46343061 2.76080187,2.287951 C2.76080187,2.11221817 2.89667623,2.00839907 3.00999032,2.00839907 C3.10356418,2.00839907 3.1835506,2.07195662 3.1835506,2.18337224 Z" id="Fill-108" fill="#C52D35"></path>
                                                    </g>
                                                </g>
                                            </g>
                                        </g>
                                    </g>
                                </g>
                            </g>
                            <path d="M1.97374052,3.30321279 C1.97374052,3.30321279 1.94210908,3.47389918 1.90115766,3.44581666 C1.84410809,3.42385112 1.78310459,3.41078301 1.71814716,3.41050497 C1.43826536,3.41022693 1.21063193,3.63349687 1.21006709,3.90931728 L1.20724285,5.81784966 C1.206678,6.09367007 1.43318174,6.31749611 1.71362838,6.3180522 C1.82575055,6.3180522 1.92855275,6.28135029 2.01271498,6.22045848 C2.69053164,9.29368729 5.10638319,11.4640638 7.98710399,11.4687905 C10.8678248,11.4732393 13.2913018,9.31009193 13.9784384,6.23908748 C14.0623182,6.29997929 14.1651204,6.33723729 14.277525,6.33751533 C14.5576892,6.33779338 14.7853227,6.11452343 14.7856051,5.83898106 L14.7887117,3.93017064 C14.7889942,3.65435023 14.5624904,3.43052419 14.2823262,3.4299681 C14.2176512,3.4299681 14.1560829,3.44303621 14.0993157,3.4647237 C7.60244304,4.19625948 5.336276,0.000278044767 5.1447928,0 C5.1447928,0 2.42759526,2.41624999 1.97374052,3.30321279 Z" id="Fill-337-Copy-7" fill="#E7E5E2"></path>
                        </g>
                        <g id="b/ansikt/-kvinne/-forfra/-glad" transform="translate(5.130778, 8.028158)">
                            <g id="Group" transform="translate(2.007039, 0.000000)">
                                <path d="M0.666824534,1.65798665 C0.2519408,1.68923912 0.135819229,1.07766552 0.260829117,0.678264659 C0.284340151,0.602570598 0.421678996,0.257933246 0.664817494,0.257933246 C0.907669272,0.257933246 1.01490252,0.446308238 1.02981196,0.47870759 C1.20843848,0.86807325 1.12070218,1.62358026 0.666824534,1.65798665" id="Fill-42" fill="#635E59"></path>
                                <path d="M5.29717932,1.65798665 C5.71206305,1.68923912 5.82818462,1.07766552 5.70317474,0.678264659 C5.6796637,0.602570598 5.54232486,0.257933246 5.29918636,0.257933246 C5.05633458,0.257933246 4.94910133,0.446308238 4.93419189,0.47870759 C4.75556538,0.86807325 4.84330167,1.62358026 5.29717932,1.65798665" id="Fill-44" fill="#635E59"></path>
                                <path d="M3.11356955,2.36110397 C3.35756404,2.32354463 3.52420161,2.34711582 3.58387938,2.42035672 C3.80913401,2.69719822 3.73708468,2.9900841 3.35062913,3.23051891 C3.1474414,3.35688566 2.86776019,3.40136208 2.71969531,3.33583549 C2.64729307,3.30379365 2.56262442,3.33651222 2.53058258,3.40891445 C2.49854074,3.48131669 2.5312593,3.56598534 2.60366154,3.59802718 C2.84837549,3.70632612 3.22470585,3.64648003 3.50207139,3.47398053 C4.02724156,3.14724388 4.14742866,2.65867444 3.80621759,2.23932074 C3.6618251,2.06211172 3.40622595,2.02595675 3.06994708,2.0777219 C2.99169328,2.08976792 2.93802127,2.16297038 2.95006728,2.24122417 C2.96211329,2.31947797 3.03531575,2.37314998 3.11356955,2.36110397 Z" id="Stroke-46" fill="#D1BFA3" fill-rule="nonzero"></path>
                                <path d="M4.74775749,4.45145326 C4.73482581,4.48107305 4.70517069,4.53778492 4.65751117,4.61248631 C4.57683538,4.73893729 4.47552684,4.86571095 4.35248164,4.98393015 C3.98581608,5.33621458 3.50856891,5.53992051 2.90115522,5.52128966 C2.30889006,5.50312344 1.83377617,5.30256097 1.46127405,4.9791407 C1.32450858,4.8603958 1.21159503,4.73322757 1.12134287,4.60646992 C1.06812124,4.53172102 1.03488934,4.47504629 1.0203551,4.4455129 C0.985394758,4.37447392 0.899465321,4.3452264 0.828426337,4.38018675 C0.757387352,4.41514709 0.728139837,4.50107653 0.763100184,4.57211552 C0.784157816,4.61490436 0.825138162,4.68479353 0.887777655,4.77276966 C0.990627374,4.91722038 1.1185216,5.06126051 1.27329829,5.19564343 C1.69380291,5.56074126 2.23119892,5.78759524 2.89236496,5.80787481 C3.58086755,5.82899286 4.13129775,5.59404982 4.55112807,5.19068583 C4.69150571,5.055814 4.80689622,4.9114187 4.89922636,4.76670072 C4.95537039,4.67870073 4.99188699,4.60886709 5.01052584,4.56617515 C5.04220541,4.49361368 5.00906409,4.40910961 4.93650261,4.37743003 C4.86394113,4.34575046 4.77943707,4.37889179 4.74775749,4.45145326 Z" id="Stroke-48" fill="#D19E9C" fill-rule="nonzero"></path>
                            </g>
                        </g>
                    </g>
                </g>
            </g>
        </g>
    </g>
</svg>