<svg width="92" height="92" xmlns="http://www.w3.org/2000/svg" xmlns:xlink="http://www.w3.org/1999/xlink"><defs><circle id="a" cx="46" cy="46" r="46"/><path d="M58.017 28.867h-.05C57.967 12.924 46.552 0 32.469 0 18.39 0 6.974 12.924 6.974 28.867v.015C6.97 42.497 0 50.282 0 50.282s6.882 8.505 32.47 8.505h.05c25.59 0 32.472-8.505 32.472-8.505s-6.975-7.79-6.975-21.415" id="c"/><path d="M37.813 2.87C43.588 5.927 52 13.389 52 20.323V32c0 6.627-5.373 12-12 12H0V20.323c0-6.657 7.62-13.8 13.28-17.066 1.04 1.77 3.781 8.823 12.126 8.823 8.283 0 12.238-7.459 12.407-9.21z" id="e"/></defs><g fill="none" fill-rule="evenodd"><mask id="b" fill="#fff"><use xlink:href="#a"/></mask><use fill="#9BD0B0" xlink:href="#a"/><g mask="url(#b)"><g transform="translate(13.417 6.708)"><mask id="d" fill="#fff"><use xlink:href="#c"/></mask><use fill="#E57F68" xlink:href="#c"/><g mask="url(#d)" fill="#D2654C"><path d="M0-1.925h66v76H0z"/></g></g><path d="M33.49 58.145c.976 1.565 3.718 29.063 11.949 29.063 8.232 0 11.948-28.01 11.948-29.467-12.603-7.239-23.897.404-23.897.404z" fill="#E7E5E2"/><g transform="translate(20.108 54.625)"><mask id="f" fill="#fff"><use xlink:href="#e"/></mask><use fill="#D8A25D" xlink:href="#e"/><g mask="url(#f)"><path fill="#5C4378" d="M-31.778 69.703h121v-89h-121z"/></g><g mask="url(#f)"><path d="M45.669 28.217H31.034a1.173 1.173 0 0 1-1.182-1.164V19.3c0-.644.529-1.166 1.182-1.166h14.635c.653 0 1.183.522 1.183 1.166v7.753c0 .643-.53 1.164-1.183 1.164" fill="#D2242A"/><path d="M42 23.642c0 1.904-1.597 3.45-3.569 3.45-1.975 0-3.574-1.546-3.574-3.45 0-1.904 1.599-3.45 3.574-3.45 1.972 0 3.57 1.546 3.57 3.45M33.804 25.162h-.697l.744-1.762h.699zM42.584 25.162h-.432l.745-1.762h.431zM43.776 25.162h-.183l.743-1.762h.182z" fill="#FFF"/><path d="M35.718 25.154h.548c.029 0 .05-.021.05-.048v-1.65c0-.026-.021-.047-.05-.047h-.554a.062.062 0 0 0-.064.062l-.218.52c-.013.026.009.058.038.058h.157c.023 0 .043.017.043.043v1.014c0 .027.022.048.05.048" fill="#C52D35"/><path d="M36.909 25.154h.55c.028 0 .053-.021.053-.048v-1.65c0-.026-.025-.047-.053-.047h-.855a.063.063 0 0 0-.065.062l-.219.52-.075.058h.438c.097 0 .176.075.176.17v.887c0 .027.022.048.05.048M39.368 23.41h-.55a.049.049 0 0 0-.05.047v1.65c0 .026.023.047.05.047h.556a.062.062 0 0 0 .064-.063l.218-.518c.013-.029-.008-.06-.041-.06h-.152a.042.042 0 0 1-.043-.04v-1.016c0-.027-.025-.048-.052-.048" fill="#C52D35"/><path d="M37.106 25.154h.362a.063.063 0 0 0 .063-.062l.218-.52c.013-.028-.008-.06-.04-.06h-.153l-.45.642zM40.84 23.41h.654c.032 0 .054.028.041.057l-.693 1.66c-.005.017-.02.027-.04.027h-.592l.587-1.716a.046.046 0 0 1 .043-.029" fill="#C52D35"/><path d="M40.02 23.41h-.925c-.065 0 .266.06.29.118l.653 1.57a.088.088 0 0 0 .084.056h.561l-.577-1.686a.089.089 0 0 0-.086-.059M38.813 23.969c0 .351-.046.372-.046.372s-.052-.337-.322-.337c-.264 0-.324.15-.324.26 0 .129.135.25.21.25h.482l-.285.607a.058.058 0 0 1-.052.033h-.22c-.228 0-.826-.29-.826-.851 0-.562.444-.894.815-.894.306 0 .568.203.568.56z" fill="#C52D35"/><path d="M39.231 19.735h-1.516a.2.2 0 0 1-.203-.196v-.247a.2.2 0 0 1 .203-.196h1.516a.2.2 0 0 1 .203.196v.247a.2.2 0 0 1-.203.196" fill="#5A1F57"/><path fill="#C2B5CF" d="M38.034 19.51h.878v-2.293h-.878z"/></g></g><path d="M26.359 33.082s-.1.57-.23.477a1.548 1.548 0 0 0-.58-.118c-.886-.001-1.607.745-1.609 1.667l-.009 6.38c-.001.921.716 1.67 1.604 1.671.355 0 .68-.123.947-.326 2.147 10.272 9.799 17.526 18.922 17.542 9.124.015 16.8-7.215 18.976-17.48.265.204.591.328.947.33.887 0 1.608-.746 1.61-1.667l.01-6.38c0-.922-.717-1.67-1.605-1.672-.205 0-.4.044-.58.116-20.576 2.445-27.753-11.58-28.36-11.58 0 0-8.606 8.076-10.043 11.04z" fill="#E7E5E2"/><g><path d="M38.718 39.035c-1.404.104-1.797-1.923-1.374-3.246.08-.25.544-1.393 1.367-1.393.822 0 1.185.624 1.236.732.605 1.29.308 3.793-1.229 3.907M54.392 39.035c1.405.104 1.798-1.923 1.375-3.246-.08-.25-.545-1.393-1.368-1.393-.822 0-1.185.624-1.235.732-.605 1.29-.308 3.793 1.228 3.907" fill="#635E59"/><path d="M47 41.365c.827-.125 1.39-.047 1.593.196.762.917.518 1.888-.79 2.684-.688.42-1.634.567-2.136.35a.49.49 0 0 0-.64.242c-.108.24.002.52.248.626.828.359 2.102.16 3.04-.41 1.779-1.083 2.185-2.702 1.03-4.092-.488-.587-1.354-.707-2.492-.535a.477.477 0 0 0-.406.542c.041.259.289.437.554.397z" fill="#D1BFA3" fill-rule="nonzero"/><path d="M52.533 48.29a4.3 4.3 0 0 1-.306.534 6.769 6.769 0 0 1-1.032 1.231c-1.242 1.167-2.857 1.842-4.913 1.78-2.005-.06-3.614-.724-4.875-1.796a7.139 7.139 0 0 1-1.15-1.235 4.308 4.308 0 0 1-.342-.533.49.49 0 0 0-.65-.216.47.47 0 0 0-.221.636c.071.141.21.373.422.664.348.48.781.956 1.305 1.402 1.424 1.21 3.243 1.96 5.48 2.028 2.332.07 4.195-.708 5.616-2.045a7.717 7.717 0 0 0 1.178-1.405 5.16 5.16 0 0 0 .377-.664.471.471 0 0 0-.25-.625.49.49 0 0 0-.64.245z" fill="#D19E9C" fill-rule="nonzero"/></g></g></g></svg>
