<?xml version="1.0" encoding="UTF-8"?>
<svg width="92px" height="92px" viewBox="0 0 92 92" version="1.1" xmlns="http://www.w3.org/2000/svg" xmlns:xlink="http://www.w3.org/1999/xlink">
    <!-- Generator: Sketch 48.2 (47327) - http://www.bohemiancoding.com/sketch -->
    <title>Icon</title>
    <desc>Created with Sketch.</desc>
    <defs>
        <circle id="path-1" cx="46" cy="46" r="46"></circle>
        <path d="M58.0172794,28.8673 L57.9666176,28.8673 C57.9666176,12.92445 46.5524265,0 32.4694118,0 C18.3883088,0 6.97411765,12.92445 6.97411765,28.8673 L6.97411765,28.8817375 C6.96933824,42.4972625 0,50.2819625 0,50.2819625 C0,50.2819625 6.88235294,58.7866125 32.4703676,58.7866125 C32.4789706,58.7866125 32.4875735,58.7866125 32.4961765,58.7866125 C32.5047794,58.7866125 32.5114706,58.7866125 32.5200735,58.7866125 C58.11,58.7866125 64.9923529,50.2819625 64.9923529,50.2819625 C64.9923529,50.2819625 58.0172794,42.49245 58.0172794,28.8673" id="path-3"></path>
        <path d="M37.8125334,2.86956522 C43.5879356,5.92745316 52,13.3886782 52,20.3234854 L52,32 C52,38.627417 46.627417,44 40,44 L0,44 L0,20.3234854 C0,13.6660787 7.6196357,6.52352658 13.2807718,3.25734441 C14.3194363,5.02640121 17.0614493,12.0795289 25.4058354,12.0795289 C33.6889461,12.0795289 37.6437636,4.62134961 37.8125334,2.86956522 Z" id="path-5"></path>
    </defs>
    <g id="Page-1" stroke="none" stroke-width="1" fill="none" fill-rule="evenodd">
        <g id="Icons/employee/sad">
            <mask id="mask-2" fill="white">
                <use xlink:href="#path-1"></use>
            </mask>
            <use id="Mask" fill="#E3B0A8" fill-rule="evenodd" xlink:href="#path-1"></use>
            <g id="kvinne/-forfra/-B" mask="url(#mask-2)" fill-rule="evenodd" stroke-width="1">
                <g transform="translate(13.416667, 6.708333)">
                    <g id="b/damme/-hår/-halvlangt">
                        <g id="hårfarge/-brunn">
                            <mask id="mask-4" fill="white">
                                <use xlink:href="#path-3"></use>
                            </mask>
                            <use id="Mask" fill="#E57F68" xlink:href="#path-3"></use>
                            <g id="g/hårfarge/-rød" mask="url(#mask-4)" fill="#D2654C">
                                <g transform="translate(0.000000, -1.925000)" id="hårfarge/-rød">
                                    <rect x="0" y="0" width="66" height="76"></rect>
                                </g>
                            </g>
                        </g>
                    </g>
                    <g id="Group" transform="translate(6.691176, 15.333333)">
                        <path d="M13.3823529,36.1030753 C14.3585941,37.6681801 17.1005284,65.1666667 25.3308824,65.1666667 C33.5630178,65.1666667 37.2794118,37.1568932 37.2794118,35.698935 C24.6759964,28.4603775 13.3823529,36.1030753 13.3823529,36.1030753 Z" id="Combined-Shape" fill="#E7E5E2"></path>
                        <g id="b/kropp/sideprofil/-nav-ansatt" transform="translate(0.000000, 32.583333)">
                            <mask id="mask-6" fill="white">
                                <use xlink:href="#path-5"></use>
                            </mask>
                            <use id="Mask" fill="#D8A25D" fill-rule="evenodd" xlink:href="#path-5"></use>
                            <g id="+20/-Lilla" mask="url(#mask-6)" fill-rule="evenodd" stroke-width="1">
                                <g transform="translate(-31.777778, -19.296786)">
                                    <g>
                                        <polygon id="Fill-58" fill="#5C4378" points="0 89 121 89 121 0 0 0"></polygon>
                                    </g>
                                </g>
                            </g>
                            <g id="nav-id/-kort" mask="url(#mask-6)" fill-rule="evenodd" stroke-width="1">
                                <g transform="translate(29.851852, 17.217391)" id="NAV-Copy-2">
                                    <g transform="translate(0.000000, -0.916667)">
                                        <g id="Group-11">
                                            <g id="Navansatt-dame">
                                                <g transform="translate(0.000000, 0.687500)">
                                                    <path d="M15.8171705,11.2291667 L1.18195396,11.2291667 C0.528814956,11.2291667 0,10.7080909 0,10.0645106 L0,2.3113521 C0,1.66777179 0.528814956,1.14583333 1.18195396,1.14583333 L15.8171705,1.14583333 C16.4703095,1.14583333 17,1.66777179 17,2.3113521 L17,10.0645106 C17,10.7080909 16.4703095,11.2291667 15.8171705,11.2291667" id="Fill-97" fill="#D2242A"></path>
                                                    <path d="M12.1490818,6.65343693 C12.1490818,8.55751302 10.5511571,10.1029557 8.57932136,10.1029557 C6.60413215,10.1029557 5.00536906,8.55751302 5.00536906,6.65343693 C5.00536906,4.74936085 6.60413215,3.20391814 8.57932136,3.20391814 C10.5511571,3.20391814 12.1490818,4.74936085 12.1490818,6.65343693" id="Fill-98" fill="#FFFFFF"></path>
                                                    <polygon id="Fill-99" fill="#FFFFFF" points="3.95171125 8.17394531 3.25502949 8.17394531 3.99949809 6.41154155 4.69785658 6.41154155"></polygon>
                                                    <polygon id="Fill-100" fill="#FFFFFF" points="12.7319974 8.17394531 12.3002391 8.17394531 13.0447077 6.41154155 13.476466 6.41154155"></polygon>
                                                    <polygon id="Fill-101" fill="#FFFFFF" points="13.9236502 8.17394531 13.7408865 8.17394531 14.4836783 6.41154155 14.666442 6.41154155"></polygon>
                                                    <path d="M5.86586745,8.16544497 L6.41415851,8.16544497 C6.44266294,8.16544497 6.46446045,8.14439651 6.46446045,8.11768116 L6.46446045,6.46861526 C6.46446045,6.44189991 6.44266294,6.42085145 6.41415851,6.42085145 L5.85999889,6.42085145 C5.82311081,6.42085145 5.79628311,6.44837636 5.79628311,6.48318727 L5.57830807,7.00211277 C5.56489422,7.02882812 5.58669173,7.06121037 5.61603452,7.06121037 L5.77280888,7.06121037 C5.79628311,7.06121037 5.81640388,7.07821105 5.81640388,7.10330729 L5.81640388,8.11768116 C5.81640388,8.14439651 5.83820139,8.16544497 5.86586745,8.16544497" id="Fill-102" fill="#C52D35"></path>
                                                    <path d="M7.05710105,8.16544497 L7.60706884,8.16544497 C7.63557327,8.16544497 7.65988587,8.14439651 7.65988587,8.11768116 L7.65988587,6.46861526 C7.65988587,6.44189991 7.63557327,6.42085145 7.60706884,6.42085145 L6.75193599,6.42085145 C6.71588627,6.42085145 6.68738184,6.44837636 6.68738184,6.48318727 L6.46856844,7.00211277 L6.39311554,7.06121037 L6.83074235,7.06121037 C6.92799275,7.06121037 7.00763748,7.13568954 7.00763748,7.23121716 L7.00763748,8.11768116 C7.00763748,8.14439651 7.02943498,8.16544497 7.05710105,8.16544497" id="Fill-103" fill="#C52D35"></path>
                                                    <path d="M9.51644636,6.42101336 L8.96647856,6.42101336 C8.9388125,6.42101336 8.91617663,6.44206182 8.91617663,6.46877717 L8.91617663,8.11784307 C8.91617663,8.14455842 8.9388125,8.16560688 8.96647856,8.16560688 L9.52231492,8.16560688 C9.559203,8.16560688 9.5860307,8.13808197 9.5860307,8.10327106 L9.80400574,7.58434556 C9.81741959,7.5560111 9.79646045,7.52524796 9.76292583,7.52524796 L9.61118166,7.52524796 C9.5860307,7.52524796 9.56842502,7.50581861 9.56842502,7.4839606 L9.56842502,6.46877717 C9.56842502,6.44206182 9.54327405,6.42101336 9.51644636,6.42101336" id="Fill-104" fill="#C52D35"></path>
                                                    <path d="M7.25436846,8.16544497 L7.61570401,8.16544497 C7.65091536,8.16544497 7.67941979,8.13711051 7.67941979,8.1039187 L7.89739483,7.58337409 C7.90997031,7.55584918 7.88901117,7.52427649 7.85715328,7.52427649 L7.70457075,7.52427649 L7.25436846,8.16544497 Z" id="Fill-105" fill="#C52D35"></path>
                                                    <path d="M10.9881132,6.42101336 L11.6420383,6.42101336 C11.6738962,6.42101336 11.6965321,6.45015738 11.6831183,6.47849185 L10.9906283,8.13889153 C10.9855981,8.15589221 10.9696692,8.16560688 10.9503868,8.16560688 L10.3585007,8.16560688 L10.9453566,6.44934783 C10.9520635,6.43234715 10.9696692,6.42101336 10.9881132,6.42101336" id="Fill-106" fill="#C52D35"></path>
                                                    <path d="M10.1681917,6.42101336 L9.24347454,6.42101336 C9.17808202,6.42101336 9.50923641,6.48253963 9.53271065,6.54001812 L10.1866358,8.11055707 C10.2000496,8.14536798 10.2335842,8.16560688 10.2704723,8.16560688 L10.8313389,8.16560688 L10.2545434,6.48011096 C10.2419679,6.44287138 10.2067565,6.42101336 10.1681917,6.42101336" id="Fill-107" fill="#C52D35"></path>
                                                    <path d="M8.96077768,6.98041667 C8.96077768,7.33176404 8.91466757,7.3528125 8.91466757,7.3528125 C8.91466757,7.3528125 8.86268891,7.01603714 8.59357357,7.01603714 C8.32948843,7.01603714 8.26912611,7.16499547 8.26912611,7.27590466 C8.26912611,7.40462409 8.40410296,7.52524796 8.47955586,7.52524796 L8.96077768,7.52524796 L8.67657176,8.13322464 C8.66651137,8.15346354 8.6463906,8.16560688 8.62375473,8.16560688 L8.40494132,8.16560688 C8.17606753,8.16560688 7.5783129,7.87578578 7.5783129,7.31476336 C7.5783129,6.75293139 8.02264664,6.42101336 8.39320421,6.42101336 C8.69920763,6.42101336 8.96077768,6.62421196 8.96077768,6.98041667 Z" id="Fill-108" fill="#C52D35"></path>
                                                    <path d="M9.37937359,2.746357 L7.86277033,2.746357 C7.75042935,2.746357 7.65988587,2.65892493 7.65988587,2.55044441 L7.65988587,2.30352978 C7.65988587,2.19585881 7.75042935,2.10761719 7.86277033,2.10761719 L9.37937359,2.10761719 C9.49171457,2.10761719 9.58225805,2.19585881 9.58225805,2.30352978 L9.58225805,2.55044441 C9.58225805,2.65892493 9.49171457,2.746357 9.37937359,2.746357" id="Fill-109" fill="#5A1F57"></path>
                                                    <polygon id="Fill-110" fill="#C2B5CF" points="8.18201993 2.52083333 9.06062701 2.52083333 9.06062701 0.229166667 8.18201993 0.229166667"></polygon>
                                                </g>
                                            </g>
                                        </g>
                                    </g>
                                </g>
                            </g>
                        </g>
                        <path d="M6.25115446,11.0406659 C6.25115446,11.0406659 6.15097258,11.6111685 6.02127282,11.5173054 C5.84058764,11.4438877 5.64737972,11.4002089 5.44164906,11.3992795 C4.55521829,11.3983502 3.83426652,12.1446082 3.83247756,13.0665109 L3.82353275,19.4455939 C3.82174379,20.3674967 4.53911763,21.1156133 5.42733737,21.117472 C5.78244636,21.117472 6.10803748,20.9947994 6.37459285,20.7912745 C8.5213475,31.0632415 16.1727388,38.3175128 25.2964461,38.3333115 C34.4201533,38.3481809 42.0956957,31.1180724 44.2719682,20.8535402 C44.5376291,21.0570651 44.8632202,21.1815963 45.2192237,21.1825256 C46.1065489,21.183455 46.8275007,20.437197 46.8283952,19.5162236 L46.8382345,13.1362113 C46.8391289,12.2143085 46.1217551,11.4661918 45.2344298,11.4643332 C45.0295937,11.4643332 44.8345968,11.508012 44.6548061,11.5805003 C24.0781628,14.0255872 16.9008465,0.000929337459 16.2943883,0 C16.2943883,0 7.68858559,8.07607944 6.25115446,11.0406659 Z" id="Fill-337-Copy-7" fill="#E7E5E2"></path>
                    </g>
                    <g id="b/ansikt/-kvinne/-forfra/-skeptisk" transform="translate(16.250000, 26.833333)">
                        <g id="Group" transform="translate(6.794118, 0.000000)">
                            <path d="M14.6572687,15.6871912 C14.540373,15.479732 14.3135808,15.1965456 13.9586218,14.918288 C13.3052984,14.406138 12.4603126,14.1258865 11.4280353,14.1973176 L9.43807785,14.3360351 C9.17073447,14.3546713 8.96944485,14.5819063 8.98848492,14.8435788 C9.00752499,15.1052513 9.23968464,15.3022711 9.50702803,15.2836349 L11.4967339,15.1449349 C12.2763036,15.0909906 12.8829733,15.2922012 13.3518827,15.6597863 C13.5973217,15.8521896 13.7474622,16.0396641 13.8073666,16.1459788 C13.9368029,16.3756944 14.2319888,16.4592126 14.4666828,16.3325219 C14.7013768,16.2058312 14.786705,15.9169068 14.6572687,15.6871912 Z" id="Stroke-145" fill="#D19E9C" fill-rule="nonzero"></path>
                            <path d="M2.10986471,4.205365 C0.705423529,4.293715 0.312335294,2.562815 0.735511765,1.433265 C0.8151,1.218565 1.28001176,0.243865 2.10307059,0.243865 C2.92515882,0.243865 3.28815882,0.776815 3.33862941,0.868015 C3.94330588,1.970015 3.64630588,4.108465 2.10986471,4.205365" id="Fill-147" fill="#635E59"></path>
                            <path d="M17.7842824,4.205365 C19.1887235,4.293715 19.5818118,2.562815 19.1586353,1.433265 C19.0790471,1.218565 18.6141353,0.243865 17.7910765,0.243865 C16.9689882,0.243865 16.6059882,0.776815 16.5555176,0.868015 C15.9508412,1.970015 16.2468706,4.108465 17.7842824,4.205365" id="Fill-149" fill="#635E59"></path>
                            <path d="M10.3919773,6.87314783 C11.2187613,6.74872038 11.7826184,6.82678716 11.983748,7.0690036 C12.7465912,7.9866625 12.5028713,8.95718536 11.1953983,9.75387005 C10.506805,10.1725208 9.55995836,10.3198609 9.05873962,10.1027502 C8.81364763,9.99658473 8.52703205,10.1049924 8.41856581,10.3448855 C8.31009957,10.5847785 8.42085662,10.8653144 8.66594861,10.9714798 C9.4942628,11.3302771 10.76801,11.1320676 11.7079385,10.5606097 C13.4851702,9.47768648 13.8916797,7.85891487 12.736774,6.46962627 C12.2491938,5.88244271 11.3841148,5.76267137 10.2444757,5.93418217 C9.97956823,5.97404961 9.79783766,6.21656317 9.83856909,6.47585138 C9.87930053,6.73513958 10.1270698,6.91301526 10.3919773,6.87314783 Z" id="Stroke-151" fill="#D1BFA3" fill-rule="nonzero"></path>
                        </g>
                    </g>
                </g>
            </g>
        </g>
    </g>
</svg>