<?xml version="1.0" encoding="UTF-8"?>
<svg width="92px" height="92px" viewBox="0 0 92 92" version="1.1" xmlns="http://www.w3.org/2000/svg" xmlns:xlink="http://www.w3.org/1999/xlink">
    <!-- Generator: Sketch 48.2 (47327) - http://www.bohemiancoding.com/sketch -->
    <title>Icon Copy</title>
    <desc>Created with Sketch.</desc>
    <defs>
        <circle id="path-1" cx="46" cy="46" r="46"></circle>
        <path d="M58.0172794,28.8673 L57.9666176,28.8673 C57.9666176,12.92445 46.5524265,0 32.4694118,0 C18.3883088,0 6.97411765,12.92445 6.97411765,28.8673 L6.97411765,28.8817375 C6.96933824,42.4972625 0,50.2819625 0,50.2819625 C0,50.2819625 6.88235294,58.7866125 32.4703676,58.7866125 C32.4789706,58.7866125 32.4875735,58.7866125 32.4961765,58.7866125 C32.5047794,58.7866125 32.5114706,58.7866125 32.5200735,58.7866125 C58.11,58.7866125 64.9923529,50.2819625 64.9923529,50.2819625 C64.9923529,50.2819625 58.0172794,42.49245 58.0172794,28.8673" id="path-3"></path>
        <path d="M37.8125334,2.86956522 C43.5879356,5.92745316 52,13.3886782 52,20.3234854 L52,32 C52,38.627417 46.627417,44 40,44 L0,44 L0,20.3234854 C0,13.6660787 7.6196357,6.52352658 13.2807718,3.25734441 C14.3194363,5.02640121 17.0614493,12.0795289 25.4058354,12.0795289 C33.6889461,12.0795289 37.6437636,4.62134961 37.8125334,2.86956522 Z" id="path-5"></path>
    </defs>
    <g id="Page-1" stroke="none" stroke-width="1" fill="none" fill-rule="evenodd">
        <g id="Icons/employee/neutral">
            <mask id="mask-2" fill="white">
                <use xlink:href="#path-1"></use>
            </mask>
            <use id="Mask" fill="#C1B5D0" fill-rule="evenodd" xlink:href="#path-1"></use>
            <g id="kvinne/-forfra/-B" mask="url(#mask-2)" fill-rule="evenodd" stroke-width="1">
                <g transform="translate(13.416667, 6.708333)">
                    <g id="b/damme/-hår/-halvlangt">
                        <g id="hårfarge/-brunn">
                            <mask id="mask-4" fill="white">
                                <use xlink:href="#path-3"></use>
                            </mask>
                            <use id="Mask" fill="#E57F68" xlink:href="#path-3"></use>
                            <g id="g/hårfarge/-rød" mask="url(#mask-4)" fill="#D2654C">
                                <g transform="translate(0.000000, -1.925000)" id="hårfarge/-rød">
                                    <rect x="0" y="0" width="66" height="76"></rect>
                                </g>
                            </g>
                        </g>
                    </g>
                    <g id="Group" transform="translate(6.691176, 15.333333)">
                        <path d="M13.3823529,36.1030753 C14.3585941,37.6681801 17.1005284,65.1666667 25.3308824,65.1666667 C33.5630178,65.1666667 37.2794118,37.1568932 37.2794118,35.698935 C24.6759964,28.4603775 13.3823529,36.1030753 13.3823529,36.1030753 Z" id="Combined-Shape" fill="#E7E5E2"></path>
                        <g id="b/kropp/sideprofil/-nav-ansatt" transform="translate(0.000000, 32.583333)">
                            <mask id="mask-6" fill="white">
                                <use xlink:href="#path-5"></use>
                            </mask>
                            <use id="Mask" fill="#D8A25D" fill-rule="evenodd" xlink:href="#path-5"></use>
                            <g id="+20/-Lilla" mask="url(#mask-6)" fill-rule="evenodd" stroke-width="1">
                                <g transform="translate(-31.777778, -19.296786)">
                                    <g>
                                        <polygon id="Fill-58" fill="#5C4378" points="0 89 121 89 121 0 0 0"></polygon>
                                    </g>
                                </g>
                            </g>
                            <g id="nav-id/-kort" mask="url(#mask-6)" fill-rule="evenodd" stroke-width="1">
                                <g transform="translate(29.851852, 17.217391)" id="NAV-Copy-2">
                                    <g transform="translate(0.000000, -0.916667)">
                                        <g id="Group-11">
                                            <g id="Navansatt-dame">
                                                <g transform="translate(0.000000, 0.687500)">
                                                    <path d="M15.8171705,11.2291667 L1.18195396,11.2291667 C0.528814956,11.2291667 0,10.7080909 0,10.0645106 L0,2.3113521 C0,1.66777179 0.528814956,1.14583333 1.18195396,1.14583333 L15.8171705,1.14583333 C16.4703095,1.14583333 17,1.66777179 17,2.3113521 L17,10.0645106 C17,10.7080909 16.4703095,11.2291667 15.8171705,11.2291667" id="Fill-97" fill="#D2242A"></path>
                                                    <path d="M12.1490818,6.65343693 C12.1490818,8.55751302 10.5511571,10.1029557 8.57932136,10.1029557 C6.60413215,10.1029557 5.00536906,8.55751302 5.00536906,6.65343693 C5.00536906,4.74936085 6.60413215,3.20391814 8.57932136,3.20391814 C10.5511571,3.20391814 12.1490818,4.74936085 12.1490818,6.65343693" id="Fill-98" fill="#FFFFFF"></path>
                                                    <polygon id="Fill-99" fill="#FFFFFF" points="3.95171125 8.17394531 3.25502949 8.17394531 3.99949809 6.41154155 4.69785658 6.41154155"></polygon>
                                                    <polygon id="Fill-100" fill="#FFFFFF" points="12.7319974 8.17394531 12.3002391 8.17394531 13.0447077 6.41154155 13.476466 6.41154155"></polygon>
                                                    <polygon id="Fill-101" fill="#FFFFFF" points="13.9236502 8.17394531 13.7408865 8.17394531 14.4836783 6.41154155 14.666442 6.41154155"></polygon>
                                                    <path d="M5.86586745,8.16544497 L6.41415851,8.16544497 C6.44266294,8.16544497 6.46446045,8.14439651 6.46446045,8.11768116 L6.46446045,6.46861526 C6.46446045,6.44189991 6.44266294,6.42085145 6.41415851,6.42085145 L5.85999889,6.42085145 C5.82311081,6.42085145 5.79628311,6.44837636 5.79628311,6.48318727 L5.57830807,7.00211277 C5.56489422,7.02882812 5.58669173,7.06121037 5.61603452,7.06121037 L5.77280888,7.06121037 C5.79628311,7.06121037 5.81640388,7.07821105 5.81640388,7.10330729 L5.81640388,8.11768116 C5.81640388,8.14439651 5.83820139,8.16544497 5.86586745,8.16544497" id="Fill-102" fill="#C52D35"></path>
                                                    <path d="M7.05710105,8.16544497 L7.60706884,8.16544497 C7.63557327,8.16544497 7.65988587,8.14439651 7.65988587,8.11768116 L7.65988587,6.46861526 C7.65988587,6.44189991 7.63557327,6.42085145 7.60706884,6.42085145 L6.75193599,6.42085145 C6.71588627,6.42085145 6.68738184,6.44837636 6.68738184,6.48318727 L6.46856844,7.00211277 L6.39311554,7.06121037 L6.83074235,7.06121037 C6.92799275,7.06121037 7.00763748,7.13568954 7.00763748,7.23121716 L7.00763748,8.11768116 C7.00763748,8.14439651 7.02943498,8.16544497 7.05710105,8.16544497" id="Fill-103" fill="#C52D35"></path>
                                                    <path d="M9.51644636,6.42101336 L8.96647856,6.42101336 C8.9388125,6.42101336 8.91617663,6.44206182 8.91617663,6.46877717 L8.91617663,8.11784307 C8.91617663,8.14455842 8.9388125,8.16560688 8.96647856,8.16560688 L9.52231492,8.16560688 C9.559203,8.16560688 9.5860307,8.13808197 9.5860307,8.10327106 L9.80400574,7.58434556 C9.81741959,7.5560111 9.79646045,7.52524796 9.76292583,7.52524796 L9.61118166,7.52524796 C9.5860307,7.52524796 9.56842502,7.50581861 9.56842502,7.4839606 L9.56842502,6.46877717 C9.56842502,6.44206182 9.54327405,6.42101336 9.51644636,6.42101336" id="Fill-104" fill="#C52D35"></path>
                                                    <path d="M7.25436846,8.16544497 L7.61570401,8.16544497 C7.65091536,8.16544497 7.67941979,8.13711051 7.67941979,8.1039187 L7.89739483,7.58337409 C7.90997031,7.55584918 7.88901117,7.52427649 7.85715328,7.52427649 L7.70457075,7.52427649 L7.25436846,8.16544497 Z" id="Fill-105" fill="#C52D35"></path>
                                                    <path d="M10.9881132,6.42101336 L11.6420383,6.42101336 C11.6738962,6.42101336 11.6965321,6.45015738 11.6831183,6.47849185 L10.9906283,8.13889153 C10.9855981,8.15589221 10.9696692,8.16560688 10.9503868,8.16560688 L10.3585007,8.16560688 L10.9453566,6.44934783 C10.9520635,6.43234715 10.9696692,6.42101336 10.9881132,6.42101336" id="Fill-106" fill="#C52D35"></path>
                                                    <path d="M10.1681917,6.42101336 L9.24347454,6.42101336 C9.17808202,6.42101336 9.50923641,6.48253963 9.53271065,6.54001812 L10.1866358,8.11055707 C10.2000496,8.14536798 10.2335842,8.16560688 10.2704723,8.16560688 L10.8313389,8.16560688 L10.2545434,6.48011096 C10.2419679,6.44287138 10.2067565,6.42101336 10.1681917,6.42101336" id="Fill-107" fill="#C52D35"></path>
                                                    <path d="M8.96077768,6.98041667 C8.96077768,7.33176404 8.91466757,7.3528125 8.91466757,7.3528125 C8.91466757,7.3528125 8.86268891,7.01603714 8.59357357,7.01603714 C8.32948843,7.01603714 8.26912611,7.16499547 8.26912611,7.27590466 C8.26912611,7.40462409 8.40410296,7.52524796 8.47955586,7.52524796 L8.96077768,7.52524796 L8.67657176,8.13322464 C8.66651137,8.15346354 8.6463906,8.16560688 8.62375473,8.16560688 L8.40494132,8.16560688 C8.17606753,8.16560688 7.5783129,7.87578578 7.5783129,7.31476336 C7.5783129,6.75293139 8.02264664,6.42101336 8.39320421,6.42101336 C8.69920763,6.42101336 8.96077768,6.62421196 8.96077768,6.98041667 Z" id="Fill-108" fill="#C52D35"></path>
                                                    <path d="M9.37937359,2.746357 L7.86277033,2.746357 C7.75042935,2.746357 7.65988587,2.65892493 7.65988587,2.55044441 L7.65988587,2.30352978 C7.65988587,2.19585881 7.75042935,2.10761719 7.86277033,2.10761719 L9.37937359,2.10761719 C9.49171457,2.10761719 9.58225805,2.19585881 9.58225805,2.30352978 L9.58225805,2.55044441 C9.58225805,2.65892493 9.49171457,2.746357 9.37937359,2.746357" id="Fill-109" fill="#5A1F57"></path>
                                                    <polygon id="Fill-110" fill="#C2B5CF" points="8.18201993 2.52083333 9.06062701 2.52083333 9.06062701 0.229166667 8.18201993 0.229166667"></polygon>
                                                </g>
                                            </g>
                                        </g>
                                    </g>
                                </g>
                            </g>
                        </g>
                        <path d="M6.25115446,11.0406659 C6.25115446,11.0406659 6.15097258,11.6111685 6.02127282,11.5173054 C5.84058764,11.4438877 5.64737972,11.4002089 5.44164906,11.3992795 C4.55521829,11.3983502 3.83426652,12.1446082 3.83247756,13.0665109 L3.82353275,19.4455939 C3.82174379,20.3674967 4.53911763,21.1156133 5.42733737,21.117472 C5.78244636,21.117472 6.10803748,20.9947994 6.37459285,20.7912745 C8.5213475,31.0632415 16.1727388,38.3175128 25.2964461,38.3333115 C34.4201533,38.3481809 42.0956957,31.1180724 44.2719682,20.8535402 C44.5376291,21.0570651 44.8632202,21.1815963 45.2192237,21.1825256 C46.1065489,21.183455 46.8275007,20.437197 46.8283952,19.5162236 L46.8382345,13.1362113 C46.8391289,12.2143085 46.1217551,11.4661918 45.2344298,11.4643332 C45.0295937,11.4643332 44.8345968,11.508012 44.6548061,11.5805003 C24.0781628,14.0255872 16.9008465,0.000929337459 16.2943883,0 C16.2943883,0 7.68858559,8.07607944 6.25115446,11.0406659 Z" id="Fill-337-Copy-7" fill="#E7E5E2"></path>
                    </g>
                    <g id="b/ansikt/-kvinne/-forfra/-glad" transform="translate(16.250000, 26.833333)">
                        <g id="Group" transform="translate(6.794118, 0.000000)">
                            <path d="M2.25729706,5.49347 C0.852855882,5.59702 0.459767647,3.57067 0.882944118,2.24732 C0.962532353,1.99652 1.42744412,0.85462 2.25050294,0.85462 C3.07259118,0.85462 3.43559118,1.47877 3.48606176,1.58612 C4.09073824,2.87622 3.79373824,5.37947 2.25729706,5.49347" id="Fill-42" fill="#635E59"></path>
                            <path d="M17.9317147,5.49347 C19.3361559,5.59702 19.7292441,3.57067 19.3060676,2.24732 C19.2264794,1.99652 18.7615676,0.85462 17.9385088,0.85462 C17.1164206,0.85462 16.7534206,1.47877 16.70295,1.58612 C16.0982735,2.87622 16.3952735,5.37947 17.9317147,5.49347" id="Fill-44" fill="#635E59"></path>
                            <path d="M10.5398812,7.82313527 C11.3658377,7.6986885 11.9299299,7.77678781 12.1319477,8.01945965 C12.8944671,8.93672908 12.6505697,9.90715899 11.342362,10.7038007 C10.6545423,11.1224965 9.70778117,11.2698619 9.20656021,11.0527502 C8.96146822,10.9465847 8.67485264,11.0549924 8.5663864,11.2948855 C8.45792016,11.5347785 8.56867721,11.8153144 8.8137692,11.9214798 C9.64216114,12.2803108 10.9160936,12.0820205 11.8550159,11.5104713 C13.6327926,10.4278824 14.0396432,8.80908679 12.8845946,7.41962627 C12.3958052,6.83247292 11.5305653,6.71267929 10.3922129,6.88419473 C10.1273125,6.92410724 9.94562502,7.16665172 9.98640251,7.42593299 C10.02718,7.68521427 10.2749809,7.86304778 10.5398812,7.82313527 Z" id="Stroke-46" fill="#D1BFA3" fill-rule="nonzero"></path>
                            <path d="M16.0718427,14.7491688 C16.0280671,14.8473092 15.9276803,15.0352148 15.7663459,15.2827257 C15.4932468,15.7017005 15.1503028,16.1217445 14.733777,16.5134447 C13.4925613,17.680682 11.8770109,18.3556286 9.82082815,18.2938983 C7.81592529,18.2337075 6.20759637,17.5691762 4.94662306,16.4975756 C4.48365225,16.1041336 4.10142364,15.6827823 3.79590709,15.2627914 C3.6157442,15.015123 3.50324943,14.8273405 3.45404894,14.7294864 C3.33570314,14.4941102 3.04481962,14.3972033 2.80434243,14.5130388 C2.56386524,14.6288742 2.46485819,14.9135875 2.583204,15.1489636 C2.65448711,15.2907375 2.79321149,15.522304 3.00525519,15.8137986 C3.3534163,16.2924126 3.78635665,16.7696663 4.31029805,17.2149223 C5.73376673,18.4246148 7.55292961,19.1762586 9.79107185,19.2434517 C12.1217523,19.313423 13.9850377,18.5349773 15.4062238,17.1984961 C15.8814223,16.7516201 16.2720358,16.2731897 16.5845866,15.7936901 C16.7746423,15.5021165 16.8982562,15.270734 16.9613514,15.1292812 C17.0685913,14.8888605 16.9564032,14.60887 16.7107721,14.5039048 C16.4651411,14.3989397 16.1790826,14.5087481 16.0718427,14.7491688 Z" id="Stroke-48" fill="#D19E9C" fill-rule="nonzero"></path>
                        </g>
                    </g>
                </g>
            </g>
        </g>
    </g>
</svg>