<?xml version="1.0" encoding="UTF-8"?>
<svg width="49px" height="49px" viewBox="0 0 49 49" version="1.1" xmlns="http://www.w3.org/2000/svg" xmlns:xlink="http://www.w3.org/1999/xlink">
    <!-- Generator: Sketch 48.2 (47327) - http://www.bohemiancoding.com/sketch -->
    <title>Icon Copy 2</title>
    <desc>Created with Sketch.</desc>
    <defs>
        <circle id="path-1" cx="24.5" cy="24.5" r="24.5"></circle>
        <path d="M31.2400735,15.3709 L31.2127941,15.3709 C31.2127941,6.88185 25.0666912,0 17.4835294,0 C9.90139706,0 3.75529412,6.88185 3.75529412,15.3709 L3.75529412,15.3785875 C3.75272059,22.6284125 0,26.7735125 0,26.7735125 C0,26.7735125 3.70588235,31.3019625 17.4840441,31.3019625 C17.4886765,31.3019625 17.4933088,31.3019625 17.4979412,31.3019625 C17.5025735,31.3019625 17.5061765,31.3019625 17.5108088,31.3019625 C31.29,31.3019625 34.9958824,26.7735125 34.9958824,26.7735125 C34.9958824,26.7735125 31.2400735,22.62585 31.2400735,15.3709" id="path-3"></path>
        <path d="M20.3605949,1.5 C23.4704268,3.09844143 28,6.99862722 28,10.6236401 L28,11 C28,17.627417 22.627417,23 16,23 L0,23 L0,10.6236401 C0,7.14363204 4.10288076,3.41002526 7.1511848,1.70270276 C7.7104657,2.62743699 9.18693424,6.31429921 13.6800652,6.31429921 C18.1402018,6.31429921 20.2697188,2.41570548 20.3605949,1.5 Z" id="path-5"></path>
    </defs>
    <g id="Page-1" stroke="none" stroke-width="1" fill="none" fill-rule="evenodd">
        <g id="Icon-Copy-2">
            <mask id="mask-2" fill="white">
                <use xlink:href="#path-1"></use>
            </mask>
            <use id="Mask" fill="#C1B5D0" xlink:href="#path-1"></use>
            <g id="kvinne/-forfra/-B" mask="url(#mask-2)">
                <g transform="translate(7.145833, 3.572917)">
                    <g id="b/damme/-hår/-halvlangt">
                        <g id="hårfarge/-brunn">
                            <mask id="mask-4" fill="white">
                                <use xlink:href="#path-3"></use>
                            </mask>
                            <use id="Mask" fill="#E57F68" xlink:href="#path-3"></use>
                            <g id="g/hårfarge/-rød" mask="url(#mask-4)" fill="#D2654C">
                                <g transform="translate(0.000000, -1.025000)" id="hårfarge/-rød">
                                    <rect x="0" y="0" width="36" height="40"></rect>
                                </g>
                            </g>
                        </g>
                    </g>
                    <g id="Group" transform="translate(3.602941, 8.166667)">
                        <path d="M7.20588235,19.2288119 C7.73155065,20.0624003 9.20797683,34.7083333 13.6397059,34.7083333 C18.0723942,34.7083333 20.0735294,19.7900844 20.0735294,19.0135632 C13.287075,15.1582445 7.20588235,19.2288119 7.20588235,19.2288119 Z" id="Combined-Shape" fill="#E7E5E2"></path>
                        <g id="b/kropp/sideprofil/-nav-ansatt" transform="translate(0.000000, 17.354167)">
                            <mask id="mask-6" fill="white">
                                <use xlink:href="#path-5"></use>
                            </mask>
                            <use id="Mask" fill="#D8A25D" fill-rule="evenodd" xlink:href="#path-5"></use>
                            <g id="+20/-Lilla" mask="url(#mask-6)" fill-rule="evenodd" stroke-width="1">
                                <g transform="translate(-17.111111, -10.086957)">
                                    <g>
                                        <polygon id="Fill-58" fill="#5C4378" points="0 47 65 47 65 0 0 0"></polygon>
                                    </g>
                                </g>
                            </g>
                            <g id="nav-id/-kort" mask="url(#mask-6)" fill-rule="evenodd" stroke-width="1">
                                <g transform="translate(16.074074, 9.000000)" id="NAV-Copy-2">
                                    <g transform="translate(0.000000, -0.500000)">
                                        <g id="Group-11">
                                            <g id="Navansatt-dame">
                                                <g transform="translate(0.000000, 0.375000)">
                                                    <path d="M8.37379616,6.125 L0.625740331,6.125 C0.279960859,6.125 0,5.84077687 0,5.48973306 L0,1.26073751 C0,0.909693703 0.279960859,0.625 0.625740331,0.625 L8.37379616,0.625 C8.71957563,0.625 9,0.909693703 9,1.26073751 L9,5.48973306 C9,5.84077687 8.71957563,6.125 8.37379616,6.125" id="Fill-97" fill="#D2242A"></path>
                                                    <path d="M6.43186685,3.62914742 C6.43186685,4.66773437 5.5859067,5.51070312 4.54199366,5.51070312 C3.49630525,5.51070312 2.64990127,4.66773437 2.64990127,3.62914742 C2.64990127,2.59056046 3.49630525,1.74759171 4.54199366,1.74759171 C5.5859067,1.74759171 6.43186685,2.59056046 6.43186685,3.62914742" id="Fill-98" fill="#FFFFFF"></path>
                                                    <polygon id="Fill-99" fill="#FFFFFF" points="2.09208243 4.45851563 1.72325091 4.45851563 2.11738134 3.49720448 2.48710054 3.49720448"></polygon>
                                                    <polygon id="Fill-100" fill="#FFFFFF" points="6.7404692 4.45851563 6.5118913 4.45851563 6.90602174 3.49720448 7.13459964 3.49720448"></polygon>
                                                    <polygon id="Fill-101" fill="#FFFFFF" points="7.3713442 4.45851563 7.27458696 4.45851563 7.66782971 3.49720448 7.76458696 3.49720448"></polygon>
                                                    <path d="M3.10545924,4.45387908 L3.39573098,4.45387908 C3.41082156,4.45387908 3.42236141,4.4423981 3.42236141,4.42782609 L3.42236141,3.5283356 C3.42236141,3.51376359 3.41082156,3.50228261 3.39573098,3.50228261 L3.10235236,3.50228261 C3.08282337,3.50228261 3.06862047,3.5172962 3.06862047,3.53628397 L2.95322192,3.81933424 C2.94612047,3.83390625 2.95766033,3.85156929 2.97319475,3.85156929 L3.05619293,3.85156929 C3.06862047,3.85156929 3.07927264,3.86084239 3.07927264,3.87453125 L3.07927264,4.42782609 C3.07927264,4.4423981 3.0908125,4.45387908 3.10545924,4.45387908" id="Fill-102" fill="#C52D35"></path>
                                                    <path d="M3.73611232,4.45387908 L4.02727174,4.45387908 C4.04236232,4.45387908 4.0552337,4.4423981 4.0552337,4.42782609 L4.0552337,3.5283356 C4.0552337,3.51376359 4.04236232,3.50228261 4.02727174,3.50228261 L3.57455435,3.50228261 C3.5554692,3.50228261 3.54037862,3.5172962 3.54037862,3.53628397 L3.42453623,3.81933424 L3.38459058,3.85156929 L3.61627536,3.85156929 C3.66776087,3.85156929 3.70992572,3.89219429 3.70992572,3.94430027 L3.70992572,4.42782609 C3.70992572,4.4423981 3.72146558,4.45387908 3.73611232,4.45387908" id="Fill-103" fill="#C52D35"></path>
                                                    <path d="M5.03811866,3.50237092 L4.74695924,3.50237092 C4.7323125,3.50237092 4.7203288,3.5138519 4.7203288,3.52842391 L4.7203288,4.4279144 C4.7203288,4.44248641 4.7323125,4.45396739 4.74695924,4.45396739 L5.04122554,4.45396739 C5.06075453,4.45396739 5.07495743,4.4389538 5.07495743,4.41996603 L5.19035598,4.13691576 C5.19745743,4.1214606 5.18636141,4.10468071 5.16860779,4.10468071 L5.08827264,4.10468071 C5.07495743,4.10468071 5.06563678,4.09408288 5.06563678,4.08216033 L5.06563678,3.52842391 C5.06563678,3.5138519 5.05232156,3.50237092 5.03811866,3.50237092" id="Fill-104" fill="#C52D35"></path>
                                                    <path d="M3.84054801,4.45387908 L4.0318433,4.45387908 C4.0504846,4.45387908 4.06557518,4.43842391 4.06557518,4.42031929 L4.18097373,4.13638587 C4.18763134,4.12137228 4.17653533,4.10415082 4.15966938,4.10415082 L4.0788904,4.10415082 L3.84054801,4.45387908 Z" id="Fill-105" fill="#C52D35"></path>
                                                    <path d="M5.81723641,3.50237092 L6.16343207,3.50237092 C6.18029801,3.50237092 6.1922817,3.51826766 6.18518025,3.53372283 L5.81856793,4.43939538 C5.81590489,4.44866848 5.80747192,4.45396739 5.79726359,4.45396739 L5.48391214,4.45396739 L5.79460054,3.51782609 C5.79815127,3.50855299 5.80747192,3.50237092 5.81723641,3.50237092" id="Fill-106" fill="#C52D35"></path>
                                                    <path d="M5.38316033,3.50237092 L4.89360417,3.50237092 C4.8589846,3.50237092 5.03430163,3.53593071 5.04672917,3.56728261 L5.39292482,4.42394022 C5.40002627,4.44292799 5.41777989,4.45396739 5.43730888,4.45396739 L5.73423822,4.45396739 L5.42887591,3.53460598 C5.4222183,3.51429348 5.40357699,3.50237092 5.38316033,3.50237092" id="Fill-107" fill="#C52D35"></path>
                                                    <path d="M4.74394112,3.8075 C4.74394112,3.99914402 4.71952989,4.010625 4.71952989,4.010625 C4.71952989,4.010625 4.69201178,3.82692935 4.54953895,3.82692935 C4.40972917,3.82692935 4.37777264,3.90817935 4.37777264,3.96867527 C4.37777264,4.03888587 4.44923098,4.10468071 4.48917663,4.10468071 L4.74394112,4.10468071 L4.59347917,4.43630435 C4.58815308,4.44734375 4.57750091,4.45396739 4.56551721,4.45396739 L4.44967482,4.45396739 C4.32850634,4.45396739 4.01204801,4.29588315 4.01204801,3.98987092 C4.01204801,3.68341712 4.24728351,3.50237092 4.44346105,3.50237092 C4.60546286,3.50237092 4.74394112,3.61320652 4.74394112,3.8075 Z" id="Fill-108" fill="#C52D35"></path>
                                                    <path d="M4.96555072,1.49801291 L4.16264312,1.49801291 C4.10316848,1.49801291 4.0552337,1.45032269 4.0552337,1.39115149 L4.0552337,1.25647079 C4.0552337,1.19774117 4.10316848,1.14960938 4.16264312,1.14960938 L4.96555072,1.14960938 C5.02502536,1.14960938 5.07296014,1.19774117 5.07296014,1.25647079 L5.07296014,1.39115149 C5.07296014,1.45032269 5.02502536,1.49801291 4.96555072,1.49801291" id="Fill-109" fill="#5A1F57"></path>
                                                    <polygon id="Fill-110" fill="#C2B5CF" points="4.33165761 1.375 4.79680254 1.375 4.79680254 0.125 4.33165761 0.125"></polygon>
                                                </g>
                                            </g>
                                        </g>
                                    </g>
                                </g>
                            </g>
                        </g>
                        <path d="M3.36600625,5.88035468 C3.36600625,5.88035468 3.31206216,6.1842093 3.24222382,6.13421701 C3.1449318,6.09511412 3.04089677,6.07185038 2.93011873,6.07135541 C2.45280985,6.07086044 2.06460505,6.46832393 2.06364176,6.95933735 L2.05882533,10.3568924 C2.05786204,10.8479058 2.44414026,11.2463593 2.92241243,11.2473492 C3.11362496,11.2473492 3.28894326,11.1820127 3.43247307,11.0736136 C4.58841788,16.5445525 8.70839784,20.4082405 13.6211633,20.416655 C18.5339287,20.4245746 22.666913,16.5737559 23.8387521,11.1067768 C23.9818003,11.215176 24.1571186,11.2815024 24.3488127,11.2819973 C24.8266033,11.2824923 25.2148081,10.8850288 25.2152897,10.3945104 L25.2205878,6.99646034 C25.2210694,6.50544692 24.8347912,6.10699348 24.3570007,6.10600353 C24.2467043,6.10600353 24.141706,6.12926728 24.0448956,6.16787519 C12.9651646,7.47014971 9.10045579,0.000494973212 8.77390138,0 C8.77390138,0 4.14000763,4.30139013 3.36600625,5.88035468 Z" id="Fill-337-Copy-7" fill="#E7E5E2"></path>
                    </g>
                    <g id="b/ansikt/-kvinne/-forfra/-undrende" transform="translate(8.750000, 14.291667)">
                        <g id="Group" transform="translate(4.000000, 0.000000)">
                            <path d="M1.00415,2.0454 C0.28065,2.0844 0.07815,1.3204 0.29565,0.8214 C0.33715,0.7269 0.57665,0.2964 1.00065,0.2964 C1.42415,0.2964 1.61115,0.5319 1.63715,0.5724 C1.94865,1.0584 1.79565,2.0024 1.00415,2.0454" id="Fill-75" fill="#635E59"></path>
                            <path d="M8.57885,2.0454 C9.30235,2.0844 9.50485,1.3204 9.28685,0.8214 C9.24585,0.7269 9.00635,0.2964 8.58235,0.2964 C8.15885,0.2964 7.97185,0.5319 7.94585,0.5724 C7.63435,1.0584 7.78685,2.0024 8.57885,2.0454" id="Fill-77" fill="#635E59"></path>
                            <path d="M5.23265,3.37035 C5.66515,3.30385 6.08665,3.31985 6.28465,3.56285 C6.76715,4.15585 6.62865,4.84035 5.81615,5.34585 C5.41015,5.59835 4.83515,5.70185 4.48265,5.54585" id="Stroke-79" stroke="#D1BFA3" stroke-linecap="round"></path>
                            <path d="M1.8894,8.3591 C1.8894,8.3591 2.2584,8.7846 3.2859,8.7766 L4.3139,8.7686" id="Stroke-81" stroke="#D19E9C" stroke-linecap="round"></path>
                        </g>
                    </g>
                </g>
            </g>
        </g>
    </g>
</svg>