<?xml version="1.0" encoding="UTF-8"?>
<svg width="81px" height="81px" viewBox="0 0 81 81" version="1.1" xmlns="http://www.w3.org/2000/svg" xmlns:xlink="http://www.w3.org/1999/xlink">
    <!-- Generator: Sketch 47.1 (45422) - http://www.bohemiancoding.com/sketch -->
    <title>Icons/employee_sad</title>
    <desc>Created with Sketch.</desc>
    <defs>
        <circle id="path-1" cx="40.5" cy="40.5" r="40.5"></circle>
    </defs>
    <g id="Söknad-ES" stroke="none" stroke-width="1" fill="none" fill-rule="evenodd">
        <g id="Assets" transform="translate(-147.000000, -295.000000)">
            <g id="Stacked-Group" transform="translate(145.000000, 20.000000)">
                <g id="Icons/employee_sad" transform="translate(2.000000, 275.000000)">
                    <mask id="mask-2" fill="white">
                        <use xlink:href="#path-1"></use>
                    </mask>
                    <use id="Mask" fill="#D8D8D8" xlink:href="#path-1"></use>
                    <g id="Person" mask="url(#mask-2)">
                        <g transform="translate(-4.000000, -4.000000)">
                            <rect id="Background" fill="#F1D8D4" fill-rule="evenodd" x="0" y="0" width="89" height="89"></rect>
                            <path d="M67.7125185,37.3063827 L67.6674691,37.3063827 C67.6674691,23.439963 57.5093827,12.1995926 44.9801605,12.1995926 C32.4498395,12.1995926 22.2917531,23.439963 22.2917531,37.3063827 L22.2917531,37.3173704 C22.2884568,49.1598642 16.0870247,55.9304568 16.0870247,55.9304568 C16.0870247,55.9304568 22.2104444,63.3273457 44.9801605,63.3273457 L45.0241111,63.3273457 C67.7938272,63.3273457 73.9172469,55.9304568 73.9172469,55.9304568 C73.9172469,55.9304568 67.7125185,49.1554691 67.7125185,37.3063827" id="Shape" fill="#E57D61" fill-rule="nonzero"></path>
                            <path d="M68.567358,72.3405185 L68.567358,89 C66.8951054,89 51.423766,89 45.174642,89 C32.7916644,89 23.3290172,89 21.589642,89 C20.947963,86.3739506 20.4491235,75.4840864 20.4491235,72.3405185 C20.4491235,61.6165679 34.4034444,52.655037 46.654679,52.655037 C58.9081111,52.655037 68.567358,61.6165679 68.567358,72.3405185 Z" id="Shape" fill="#5F224E" fill-rule="nonzero"></path>
                            <path d="M64.9952716,34.3803704 C64.916655,33.9417777 64.645453,33.5615755 64.2563458,33.3444587 C63.8672386,33.127342 63.4012612,33.0962079 62.9867284,33.2596296 L62.9240988,33.2662222 C57.3808272,25.8374691 46.5711728,32.6904691 38.3205432,25.5968395 C37.2635309,24.4870864 36.7130494,23.7146543 36.5680123,23.7146543 C36.5680123,23.7146543 28.5668025,30.5423827 27.234,33.1574444 C27.234,33.1574444 27.1406049,33.3442346 27.018642,33.2596296 C26.6039839,33.0958028 26.1376898,33.1267299 25.7483004,33.3438852 C25.3589111,33.5610406 25.087542,33.9414949 25.009,34.3803704 C24.9761107,34.4992279 24.9587523,34.6218443 24.957358,34.7451605 L24.957358,40.6971728 C24.957358,41.5102593 25.6276049,42.1706173 26.4549753,42.1706173 C26.7868025,42.1706173 27.0900617,42.0607407 27.3383827,41.881642 C28.5602099,47.380963 31.6763086,51.9990741 35.8329383,54.7888395 C34.7649383,55.1843951 32.9069259,56.0930741 32.9069259,56.0930741 C33.8474691,57.4511481 37.0855309,64.5854321 44.9977407,64.5854321 C52.9110494,64.5854321 57.1017407,57.3006173 57.8884568,55.432716 C57.8884568,55.432716 56.7226667,54.6449012 55.0107901,54.1911111 C58.7465926,51.3628889 61.5275679,47.0051852 62.6658889,41.881642 C62.9142099,42.0618395 63.2185679,42.1706173 63.5492963,42.1706173 C64.3766667,42.1706173 65.0480123,41.511358 65.0480123,40.6971728 L65.0480123,34.7451605 C65.0462601,34.6217963 65.0285323,34.4991791 64.9952716,34.3803704" id="Shape" fill="#F2EFEE" fill-rule="nonzero"></path>
                            <path d="M56.4325926,73.4700494 L55.1305556,73.4700494 C54.9531776,73.4712694 54.8082318,73.3287803 54.8064198,73.1514074 L54.8064198,73.1294321 C54.8064198,72.9536296 54.9514568,72.8107901 55.1305556,72.8107901 L56.4325926,72.8107901 C56.6116914,72.8107901 56.7567284,72.9536296 56.7567284,73.1294321 L56.7567284,73.1514074 C56.7567284,73.3272099 56.6116914,73.4700494 56.4325926,73.4700494" id="Shape" fill="#5F224E" fill-rule="nonzero"></path>
                            <polygon id="Shape" fill="#F2EFEE" fill-rule="nonzero" points="43.4188148 69.1255309 47.3589877 69.1255309 54.4965679 60.3266173 35.8549136 60.3266173"></polygon>
                            <path d="M64.492037,80.1549383 L50.1509506,80.1549383 C49.7708877,80.1579865 49.4601557,79.8526628 49.4565309,79.4726049 L49.4565309,71.5208395 C49.4565309,71.143963 49.7674815,70.8374074 50.1509506,70.8374074 L64.492037,70.8374074 C64.8755062,70.8374074 65.1864568,71.143963 65.1864568,71.5208395 L65.1864568,79.4726049 C65.1850055,79.6553213 65.1110269,79.8299769 64.9807967,79.9581465 C64.8505665,80.0863161 64.6747533,80.1574999 64.492037,80.156037" id="Shape" fill="#CD1719" fill-rule="nonzero"></path>
                            <path d="M60.8880864,75.6565926 C60.8880864,77.5310864 59.344321,79.0539753 57.437963,79.0539753 C55.5305062,79.0539753 53.9845432,77.5310864 53.9845432,75.6565926 C53.9845432,73.781 55.5305062,72.2592099 57.4390617,72.2592099 C59.344321,72.2592099 60.8880864,73.781 60.8880864,75.6565926 L60.8880864,75.6565926 Z M52.9670864,77.1531111 L52.2935432,77.1531111 L53.0132346,75.4170617 L53.6878765,75.4170617 L52.9670864,77.1531111 Z M61.4517531,77.1531111 L61.0342222,77.1531111 L61.7539136,75.4170617 L62.1714444,75.4170617 L61.4517531,77.1531111 Z M62.6032593,77.1531111 L62.4274568,77.1531111 L63.1438519,75.4170617 L63.3207531,75.4170617 L62.6032593,77.1531111 Z" id="Shape" fill="#FFFFFF" fill-rule="nonzero"></path>
                            <path d="M54.8174074,77.144321 L55.3459136,77.144321 C55.3744815,77.144321 55.395358,77.1245432 55.395358,77.0981728 L55.395358,75.4741975 C55.395372,75.4612767 55.3900937,75.4489138 55.380752,75.4399873 C55.3714104,75.4310608 55.3588205,75.4263496 55.3459136,75.4269506 L54.8119136,75.4269506 C54.7953162,75.4263437 54.7792006,75.4325944 54.7673532,75.4442339 C54.7555058,75.4558735 54.7489709,75.471876 54.749284,75.4884815 L54.538321,75.9994074 C54.5262346,76.0257778 54.5471111,76.057642 54.575679,76.057642 L54.7273086,76.057642 C54.749284,76.057642 54.7690617,76.0741235 54.7690617,76.0993951 L54.7690617,77.0992716 C54.7690617,77.1245432 54.7899383,77.1454198 54.8163086,77.1454198" id="Shape" fill="#C42229" fill-rule="nonzero"></path>
                            <path d="M55.9678148,77.144321 L56.4996173,77.144321 C56.5270864,77.144321 56.5501605,77.1245432 56.5501605,77.0981728 L56.5501605,75.4741975 C56.5501605,75.4478272 56.5281852,75.4269506 56.4996173,75.4269506 L55.6733457,75.4269506 C55.6391809,75.4269454 55.6113154,75.4543219 55.610716,75.4884815 L55.3997531,75.9994074 L55.3272346,76.057642 L55.7491605,76.057642 C55.8436543,76.057642 55.9205679,76.1312593 55.9205679,76.2257531 L55.9205679,77.0981728 C55.9205679,77.1245432 55.9414444,77.1454198 55.9678148,77.1454198 M58.3444444,75.4269506 L57.812642,75.4269506 C57.799922,75.4266547 57.7876204,75.4315016 57.7785208,75.4403944 C57.7694212,75.4492872 57.7642929,75.4614742 57.7642963,75.4741975 L57.7642963,77.0981728 C57.7642963,77.1245432 57.7862716,77.1454198 57.812642,77.1454198 L58.3499383,77.1454198 C58.3663477,77.1457209 58.382174,77.139335 58.3937792,77.1277298 C58.4053844,77.1161246 58.4117703,77.1002984 58.4114691,77.0838889 L58.6224321,76.5718642 C58.6356173,76.5454938 58.6147407,76.5147284 58.5828765,76.5147284 L58.435642,76.5147284 C58.4131892,76.5147284 58.3949877,76.4965268 58.3949877,76.4740741 L58.3949877,75.4741975 C58.3949877,75.4478272 58.369716,75.4269506 58.3444444,75.4269506" id="Shape" fill="#C42229" fill-rule="nonzero"></path>
                            <path d="M56.1579012,77.144321 L56.5073086,77.144321 C56.5402716,77.144321 56.5699383,77.1168519 56.5699383,77.0838889 L56.7787037,76.5718642 C56.7918889,76.5454938 56.7721111,76.5147284 56.7402469,76.5147284 L56.5941111,76.5147284 L56.1579012,77.1454198 L56.1579012,77.144321 Z M59.7662469,75.4269506 L60.398037,75.4269506 C60.4299012,75.4269506 60.4507778,75.4555185 60.4386914,75.4840864 L59.7684444,77.1190494 C59.7640494,77.1355309 59.7486667,77.1454198 59.7288889,77.1454198 L59.1575309,77.1454198 L59.7255926,75.4544198 C59.7320424,75.4376437 59.7482758,75.4266752 59.7662469,75.4269506 L59.7662469,75.4269506 Z" id="Shape" fill="#C42229" fill-rule="nonzero"></path>
                            <path d="M58.974037,75.4269506 L58.0807407,75.4269506 C58.0181111,75.4269506 58.3378519,75.4873827 58.3598272,75.5445185 L58.9916173,77.0915802 C59.0048025,77.125642 59.0366667,77.1454198 59.0729259,77.1454198 L59.6146173,77.1454198 L59.0564444,75.4851852 C59.0448239,75.4497243 59.0113429,75.4260644 58.974037,75.4269506 M57.2588642,75.4269506 C57.5555309,75.4269506 57.8071481,75.6269259 57.8071481,75.9785309 C57.8071481,76.324642 57.7631975,76.3444198 57.7631975,76.3444198 C57.7631975,76.3444198 57.7126543,76.0136914 57.4522469,76.0136914 C57.1973333,76.0136914 57.1390988,76.1598272 57.1390988,76.2686049 C57.1390988,76.3960617 57.2698519,76.5147284 57.3423704,76.5147284 L57.8071481,76.5147284 L57.5324568,77.1135556 C57.5229474,77.1328417 57.5034151,77.1451556 57.4819136,77.1454198 L57.2709506,77.1454198 C57.049,77.1454198 56.4710494,76.8597407 56.4710494,76.3070617 C56.4710494,75.753284 56.8995679,75.4280494 57.2588642,75.4280494" id="Shape" fill="#C42229" fill-rule="nonzero"></path>
                            <path d="M58.2829136,71.808716 L56.674321,71.808716 C56.641493,71.8090092 56.6099088,71.7961733 56.586592,71.7730629 C56.5632753,71.7499525 56.5501592,71.7184836 56.5501605,71.6856543 L56.5501605,71.3010864 C56.5501605,71.2340617 56.6050988,71.1802222 56.674321,71.1802222 L58.2829136,71.1802222 C58.3521358,71.1802222 58.4081728,71.2340617 58.4081728,71.3010864 L58.4081728,71.6856543 C58.4081728,71.7537778 58.3532346,71.808716 58.2829136,71.808716" id="Shape" fill="#5B2052" fill-rule="nonzero"></path>
                            <polygon id="Shape" fill="#86497E" fill-rule="nonzero" points="57.0544938 71.5549012 57.9038395 71.5549012 57.9038395 69.0541111 57.0544938 69.0541111"></polygon>
                            <path d="M50.0092099,50.448716 C49.8448477,50.4486363 49.6934418,50.359475 49.6136543,50.2157778 C49.5806914,50.1641358 48.9554938,49.1642593 47.4765556,49.268642 L45.6317284,49.3993951 C45.381107,49.4169931 45.1636722,49.2280905 45.1460741,48.9774691 C45.128476,48.7268478 45.3173787,48.5094129 45.568,48.4918148 L47.4106296,48.359963 C49.5367407,48.2160247 50.3729012,49.7092469 50.406963,49.7729753 C50.4845074,49.9139589 50.4820092,50.0853746 50.4003891,50.2240385 C50.3187691,50.3627024 50.1701108,50.4480857 50.0092099,50.448716" id="Shape" fill="#D19E9C" fill-rule="nonzero"></path>
                            <path d="M38.7809259,38.9094815 C37.4799877,38.9929877 37.1151975,37.3547284 37.5074568,36.2856296 C37.5810741,36.082358 38.0117901,35.1604938 38.7743333,35.1604938 C39.5357778,35.1604938 39.872,35.6648272 39.9181481,35.7516296 C40.4785185,36.794358 40.2038272,38.8171852 38.7809259,38.9094815 M53.2989136,38.9094815 C54.5998519,38.9929877 54.964642,37.3547284 54.5723827,36.2856296 C54.4987654,36.0834568 54.0669506,35.1604938 53.3055062,35.1604938 C52.5440617,35.1604938 52.2078395,35.6648272 52.1605926,35.7516296 C51.6002222,36.794358 51.8749136,38.8171852 53.2989136,38.9094815" id="Shape" fill="#59514B" fill-rule="nonzero"></path>
                            <path d="M45.7558889,45.2614444 C45.4548272,45.2614444 45.174642,45.212 44.9428025,45.1098148 C44.8276277,45.0587235 44.7755297,44.924055 44.8263333,44.8087531 C44.8782845,44.694472 45.012376,44.6430866 45.1273951,44.6933827 C45.6624938,44.930716 46.621716,44.7790864 47.3128395,44.3483704 C48.0160494,43.9110617 48.4368765,43.3880494 48.5291728,42.8353704 C48.6038889,42.3848765 48.4555556,41.9168025 48.0984568,41.4794938 C47.8512346,41.1751358 47.2699877,41.0839383 46.4173457,41.2157901 C46.2937573,41.2322935 46.1794134,41.1476304 46.1591358,41.0246049 C46.1400768,40.9005217 46.2251552,40.784461 46.3492222,40.7652963 C47.3842593,40.6048765 48.0907654,40.7488148 48.4511605,41.192716 C48.8917654,41.7344074 49.0741605,42.3277407 48.9785679,42.9100864 C48.8631975,43.5946173 48.3709506,44.2264074 47.5534691,44.7351358 C47.0040864,45.0768519 46.3393333,45.2614444 45.7558889,45.2614444" id="Shape" fill="#D0BEA3" fill-rule="nonzero"></path>
                        </g>
                    </g>
                </g>
            </g>
        </g>
    </g>
</svg>