<?xml version="1.0" encoding="UTF-8"?>
<svg width="364px" height="209px" viewBox="0 0 400 208" version="1.1" xmlns="http://www.w3.org/2000/svg" xmlns:xlink="http://www.w3.org/1999/xlink">
    <!-- Generator: Sketch 48.2 (47327) - http://www.bohemiancoding.com/sketch -->
    <title>Foreground</title>
    <desc>Created with Sketch.</desc>
    <defs>
        <rect id="path-1" x="0" y="0" width="600" height="209"></rect>
        <path d="M126.745441,62.79575 L126.634765,62.79575 C126.634765,28.114875 101.699147,0 70.9331765,0 C40.1713824,0 15.2357647,28.114875 15.2357647,62.79575 L15.2357647,62.8271562 C15.2253235,92.4453437 0,109.379594 0,109.379594 C0,109.379594 15.0352941,127.879969 70.9352647,127.879969 C70.9540588,127.879969 70.9728529,127.879969 70.9916471,127.879969 C71.0104412,127.879969 71.0250588,127.879969 71.0438529,127.879969 C126.948,127.879969 141.983294,109.379594 141.983294,109.379594 C141.983294,109.379594 126.745441,92.434875 126.745441,62.79575" id="path-3"></path>
        <path d="M81.9984463,6.28125 C94.5227064,12.9747235 112.764706,29.3067515 112.764706,44.4864929 L112.764706,84.3125 C112.764706,90.939917 107.392123,96.3125 100.764706,96.3125 L0,96.3125 L0,44.4864929 C0,29.9139592 16.5235765,14.2794808 28.8000447,7.13006782 C31.0524428,11.0023924 36.9986406,26.4411279 55.0938762,26.4411279 C73.0562327,26.4411279 81.6324601,10.1157667 81.9984463,6.28125 Z" id="path-5"></path>
    </defs>
    <g id="A1" stroke="none" stroke-width="1" fill="none" fill-rule="evenodd" transform="translate(-11.000000, -254.000000)">
        <g id="Illustration" transform="translate(0.000000, 34.000000)">
            <g id="Content">
                <g id="Foreground" transform="translate(0.000000, 220.000000)">
                    <mask id="mask-2" fill="white">
                        <use xlink:href="#path-1"></use>
                    </mask>
                    <g id="Mask"></g>
                    <g mask="url(#mask-2)">
                        <g transform="translate(11.000000, 2.000000)">
                            <g id="Window" transform="translate(223.000000, 2.000000)">
                                <polygon id="Fill-77" fill="#9BBDCD" points="19.7361237 146.284615 165.452742 146.284615 165.452742 0.146153846 19.7361237 0.146153846"></polygon>
                                <polygon id="Stroke-78" stroke="#403A33" stroke-width="7.67999966" stroke-linecap="round" stroke-linejoin="round" points="19.7361237 146.284615 165.452742 146.284615 165.452742 0.146153846 19.7361237 0.146153846"></polygon>
                                <path d="M128.910454,54.1194231 C128.952639,48.9751923 133.146268,44.8405769 138.275649,44.8828846 C143.405031,44.9271154 147.527711,49.1309615 147.485526,54.2751923 C147.44334,59.4194231 143.249711,63.5559615 138.12033,63.5117308 C132.990948,63.4694231 128.868268,59.2636538 128.910454,54.1194231" id="Fill-79" fill="#FFFFFF"></path>
                                <path d="M117.062637,57.2444231 C117.095235,53.4559615 120.180534,50.4117308 123.95806,50.4425 C127.735586,50.4751923 130.771029,53.5713462 130.740348,57.3598077 C130.707751,61.1482692 127.620534,64.1925 123.844926,64.1617308 C120.0674,64.1290385 117.030039,61.0328846 117.062637,57.2444231" id="Fill-80" fill="#FFFFFF"></path>
                                <path d="M106.182021,47.0703846 C106.224206,41.9569231 110.39099,37.8473077 115.489691,37.8915385 C120.588392,37.9338462 124.684227,42.1126923 124.642041,47.2261538 C124.599856,52.3376923 120.433072,56.4473077 115.334371,56.405 C110.237588,56.3626923 106.139835,52.1819231 106.182021,47.0703846" id="Fill-81" fill="#FFFFFF"></path>
                                <path d="M134.590932,43.1613462 C134.60819,41.1132692 136.278355,39.4651923 138.32052,39.4825 C140.362685,39.4998077 142.006004,41.1748077 141.988746,43.2228846 C141.971489,45.2709615 140.301324,46.9190385 138.259159,46.9017308 C136.216994,46.8844231 134.573674,45.2094231 134.590932,43.1613462" id="Fill-82" fill="#FFFFFF"></path>
                                <path d="M121.962299,40.2832692 C121.994897,36.5313462 125.051433,33.5159615 128.792526,33.5486538 C132.531701,33.5794231 135.538381,36.6448077 135.505784,40.3967308 C135.475103,44.1486538 132.418567,47.1640385 128.677474,47.1332692 C124.938299,47.1005769 121.931619,44.0351923 121.962299,40.2832692" id="Fill-83" fill="#FFFFFF"></path>
                                <path d="M121.024054,48.6065385 C120.985703,53.2084615 124.673105,56.9680769 129.261744,57.0065385 C133.848466,57.045 137.599146,53.3469231 137.637497,48.745 C137.675847,44.145 133.988445,40.3853846 129.399806,40.3469231 C124.813085,40.3084615 121.062404,44.0046154 121.024054,48.6065385" id="Fill-84" fill="#FFFFFF"></path>
                                <polygon id="Fill-85" fill="#635E59" points="135.394375 121.187692 89.954767 61.4280769 49.7998598 132.076154"></polygon>
                                <polygon id="Fill-86" fill="#74706C" points="163.5356 93.2092308 134.005703 43.5111538 95.8469402 129.426538 163.5356 118.409231"></polygon>
                                <path d="M19.7370825,119.971731 C80.783433,132.589038 84.8102371,112.569808 165.453701,112.569808 L165.453701,146.285192 L19.7370825,146.285192 L19.7370825,119.971731 Z" id="Fill-87" fill="#EDEDEC"></path>
                                <path d="M88.2707959,21.1821154 C91.4826515,25.6128846 90.5066309,31.8148077 86.0886515,35.0359615 C81.6706722,38.2571154 75.4866515,37.2782692 72.2747959,32.8475 C69.0610227,28.4167308 70.0389608,22.2148077 74.4569402,18.9936538 C78.8749196,15.7725 85.0589402,16.7513462 88.2707959,21.1821154" id="Fill-88" fill="#FFFFFF"></path>
                                <path d="M73.7160082,21.8196154 C78.087967,27.8503846 76.7572041,36.2926923 70.7457608,40.6792308 C64.7304825,45.0638462 56.3125443,43.7292308 51.9405856,37.6984615 C47.5686268,31.6676923 48.8993897,23.2234615 54.910833,18.8407692 C60.9261113,14.4542308 69.3440495,15.7888462 73.7160082,21.8196154" id="Fill-89" fill="#FFFFFF"></path>
                                <path d="M76.991334,11.285 C79.1255402,14.2273077 78.475499,18.3484615 75.5416845,20.4888462 C72.6059526,22.6292308 68.4966948,21.9792308 66.3644062,19.035 C64.2302,16.0926923 64.8783237,11.9696154 67.8140557,9.83115385 C70.7497876,7.69076923 74.8571278,8.34076923 76.991334,11.285" id="Fill-90" fill="#FFFFFF"></path>
                                <polygon id="Stroke-91" stroke="#403A33" stroke-width="5.75999974" stroke-linecap="round" stroke-linejoin="round" points="19.7380412 73.2153846 92.5963505 73.2153846 92.5963505 0.146153846 19.7380412 0.146153846"></polygon>
                                <polygon id="Stroke-92" stroke="#514C47" stroke-width="5.75999974" stroke-linecap="round" stroke-linejoin="round" points="92.5963505 73.2153846 165.45466 73.2153846 165.45466 0.146153846 92.5963505 0.146153846"></polygon>
                                <polygon id="Stroke-93" stroke="#514C47" stroke-width="5.75999974" stroke-linecap="round" stroke-linejoin="round" points="19.7380412 146.284615 92.5963505 146.284615 92.5963505 73.2153846 19.7380412 73.2153846"></polygon>
                                <polygon id="Stroke-94" stroke="#514C47" stroke-width="5.75999974" stroke-linecap="round" stroke-linejoin="round" points="92.5963505 146.284615 165.45466 146.284615 165.45466 73.2153846 92.5963505 73.2153846"></polygon>
                                <path d="M0.276113402,146.284423 L184.91467,146.284423" id="Stroke-95" stroke="#514C47" stroke-width="11.5199995" stroke-linecap="round" stroke-linejoin="round"></path>
                                <polygon id="Stroke-96" stroke="#514C47" stroke-width="7.67999966" stroke-linecap="round" stroke-linejoin="round" points="19.7361237 146.284615 165.452742 146.284615 165.452742 0.146153846 19.7361237 0.146153846"></polygon>
                            </g>
                            <g id="Tavle-med-postits" transform="translate(8.000000, 0.000000)">
                                <polygon id="Fill-412" fill="#EFEFEF" points="0 134.209756 130.845 134.209756 130.845 0 0 0"></polygon>
                                <path d="M15.114,10.0130488 C15.114,12.8134756 12.837,15.0821341 10.03035,15.0821341 C7.22205,15.0821341 4.95,12.8134756 4.95,10.0130488 C4.95,7.21591463 7.22205,4.93902439 10.03035,4.93902439 C12.837,4.93902439 15.114,7.21591463 15.114,10.0130488" id="Fill-414" fill="#838688"></path>
                                <path d="M127.3107,10.0130488 C127.3107,12.8134756 125.037,15.0821341 122.23035,15.0821341 C119.41875,15.0821341 117.15,12.8134756 117.15,10.0130488 C117.15,7.21591463 119.41875,4.93902439 122.23035,4.93902439 C125.037,4.93902439 127.3107,7.21591463 127.3107,10.0130488" id="Fill-415" fill="#838688"></path>
                                <path d="M56.9550085,97.5852439 C61.5403585,98.4759146 24.8295085,96.9563415 19.7623585,97.5852439 C14.7001585,98.2190854 17.0398585,65.8536585 17.0398585,65.8536585 L54.2325085,65.8536585 C54.2325085,65.8536585 52.3597585,96.7044512 56.9550085,97.5852439" id="Fill-416" fill="#E9C264"></path>
                                <path d="M53.9847,92.195122 L16.5,92.195122 C16.98675,95.4631098 17.8035,97.6428659 19.1499,97.479878 C24.21705,96.8460366 60.9279,98.3656098 56.34255,97.479878 C55.1925,97.2609146 54.4566,95.184878 53.9847,92.195122" id="Fill-417" fill="#DAB25B"></path>
                                <path d="M111.402896,77.8307927 C115.983296,78.714878 79.2773958,77.2002439 74.2135458,77.8307927 C69.1480458,78.4646341 71.4910458,46.097561 71.4910458,46.097561 L108.678746,46.097561 C108.678746,46.097561 106.812596,76.9483537 111.402896,77.8307927" id="Fill-418" fill="#E9C264"></path>
                                <path d="M108.4347,72.4390244 L70.95,72.4390244 C71.43675,75.7119512 72.25185,77.895 73.6032,77.7287195 C78.66705,77.094878 115.37295,78.6095122 110.79255,77.7287195 C109.6425,77.5031707 108.90165,75.4337195 108.4347,72.4390244" id="Fill-419" fill="#DAB25B"></path>
                                <path d="M66.8500585,46.5535976 C71.4403585,47.4343902 34.7295085,45.9197561 29.6623585,46.5535976 C24.6001585,47.1792073 26.9398585,14.8170732 26.9398585,14.8170732 L64.1275585,14.8170732 C64.1275585,14.8170732 62.2597585,45.6678659 66.8500585,46.5535976" id="Fill-420" fill="#E9C264"></path>
                                <path d="M63.8847,41.1585366 L26.4,41.1585366 C26.88675,44.4265244 27.70185,46.6112195 29.0499,46.4432927 C34.11705,45.8094512 70.8279,47.3240854 66.2376,46.4432927 C65.0925,46.2226829 64.35165,44.145 63.8847,41.1585366" id="Fill-421" fill="#DAB25B"></path>
                            </g>
                            <g id="Blyantholder" transform="translate(266.000000, 134.000000)">
                                <g id="Gul-blypenn" transform="translate(0.000000, 15.000000)">
                                    <polygon id="Fill-148" fill="#E2D1B6" points="7.1233 8.2743 2.5223 0.7643 0.3313 9.2943 4.0043 9.7053"></polygon>
                                    <polygon id="Fill-149" fill="#E9C264" points="11.009 49.6498 13.275 49.3078 7.224 8.9588 4.96 9.2968"></polygon>
                                    <polygon id="Fill-150" fill="#DAB25B" points="2.6975 9.6385 8.7455 49.9855 11.0095 49.6495 4.9605 9.2975"></polygon>
                                    <polygon id="Fill-151" fill="#E9C264" points="8.7454 49.9857 2.6974 9.6387 0.4294 9.9777 6.4824 50.3247"></polygon>
                                    <path d="M6.3079,7.9012 C5.8819,7.9642 5.6759,8.5532 5.1129,8.6362 C5.0149,8.6482 4.9349,8.6422 4.8599,8.6252 L4.9599,9.2972 L7.2239,8.9582 L7.1289,8.3322 C7.1289,8.3322 6.7359,7.8382 6.3079,7.9012" id="Fill-152" fill="#E9C264"></path>
                                    <path d="M4.8596,8.6249 C4.4686,8.5389 4.2426,8.1249 3.6426,8.2119 C3.0396,8.3029 2.9476,8.7659 2.5966,8.9669 L2.6976,9.6389 L4.9606,9.2969 L4.8596,8.6249 Z" id="Fill-153" fill="#DAB25B"></path>
                                    <path d="M2.5969,8.9667 C2.5319,9.0047 2.4529,9.0327 2.3589,9.0477 C1.7899,9.1307 1.4249,8.6367 0.9969,8.6997 C0.5729,8.7597 0.3429,9.3517 0.3429,9.3517 L0.4289,9.9777 L2.6979,9.6387 L2.5969,8.9667 Z" id="Fill-154" fill="#E9C264"></path>
                                    <polygon id="Fill-155" fill="#545757" points="2.5256 0.7645 1.7506 3.7835 4.1506 3.4235"></polygon>
                                </g>
                                <g id="Blå-blypenn" transform="translate(23.000000, 0.000000)">
                                    <polygon id="Fill-157" fill="#E2D1B6" points="13.6702 9.1019 11.4592 0.5789 6.8792 8.0879 10.2732 9.5559"></polygon>
                                    <polygon id="Fill-158" fill="#50808B" points="5.3196 49.808 7.5826 50.144 13.5676 9.783 11.3036 9.447"></polygon>
                                    <polygon id="Fill-159" fill="#0C576F" points="9.0383 9.1102 3.0543 49.4712 5.3193 49.8082 11.3043 9.4492"></polygon>
                                    <polygon id="Fill-160" fill="#50808B" points="3.054 49.4715 9.041 9.1105 6.773 8.7745 0.787 49.1355"></polygon>
                                    <path d="M13.0012,8.5077 C12.5762,8.4417 12.2062,8.9417 11.6372,8.8577 C11.5452,8.8437 11.4712,8.8147 11.4042,8.7747 L11.3042,9.4467 L13.5672,9.7827 L13.6622,9.1567 C13.6622,9.1567 13.4272,8.5707 13.0012,8.5077" id="Fill-161" fill="#50808B"></path>
                                    <path d="M11.4016,8.7748 C11.0546,8.5798 10.9626,8.1138 10.3596,8.0248 C9.7536,7.9358 9.5296,8.3528 9.1416,8.4418 L9.0386,9.1128 L11.3036,9.4468 L11.4016,8.7748 Z" id="Fill-162" fill="#0C576F"></path>
                                    <path d="M9.1389,8.4413 C9.0609,8.4593 8.9809,8.4613 8.8919,8.4473 C8.3209,8.3633 8.1169,7.7843 7.6889,7.7143 C7.2609,7.6543 6.8679,8.1483 6.8679,8.1483 L6.7729,8.7773 L9.0409,9.1103 L9.1389,8.4413 Z" id="Fill-163" fill="#50808B"></path>
                                    <polygon id="Fill-164" fill="#545757" points="11.4592 0.5785 9.8402 3.2375 12.2402 3.5965"></polygon>
                                </g>
                                <g id="Grønn-blypenn" transform="translate(17.000000, 22.000000)">
                                    <polygon id="Fill-166" fill="#E2D1B6" points="8.4241 9.0028 5.3491 0.7518 1.5641 8.6988 5.0901 9.8068"></polygon>
                                    <polygon id="Fill-167" fill="#97AB48" points="5.2454 30.3065 7.5344 30.4045 8.3924 9.6915 6.1064 9.5915"></polygon>
                                    <polygon id="Fill-168" fill="#727D31" points="3.8206 9.4911 2.9626 30.2031 5.2456 30.3061 6.1066 9.5921"></polygon>
                                    <polygon id="Fill-169" fill="#97AB48" points="2.9592 30.203 3.8172 9.491 1.5322 9.388 0.6732 30.105"></polygon>
                                    <path d="M7.6975,8.4798 C7.2665,8.4598 6.9545,8.9968 6.3805,8.9688 C6.2875,8.9628 6.2075,8.9448 6.1355,8.9138 L6.1035,9.5918 L8.3925,9.6918 L8.4245,9.0608 C8.4245,9.0608 8.1285,8.4978 7.6975,8.4798" id="Fill-170" fill="#97AB48"></path>
                                    <path d="M6.136,8.9139 C5.765,8.7499 5.627,8.3019 5.019,8.2759 C4.409,8.2499 4.229,8.6869 3.85,8.8099 L3.821,9.4939 L6.107,9.5919 L6.136,8.9139 Z" id="Fill-171" fill="#727D31"></path>
                                    <path d="M3.8499,8.8104 C3.7749,8.8364 3.6949,8.8534 3.6029,8.8474 C3.0259,8.8244 2.7609,8.2584 2.3299,8.2454 C1.8969,8.2274 1.5579,8.7554 1.5579,8.7554 L1.5329,9.3874 L3.8209,9.4944 L3.8499,8.8104 Z" id="Fill-172" fill="#97AB48"></path>
                                    <polygon id="Fill-173" fill="#545757" points="5.3489 0.7518 4.0069 3.5638 6.4399 3.6728"></polygon>
                                </g>
                                <g id="Rød-penn" transform="translate(12.924323, 42.099277) rotate(2.000000) translate(-12.924323, -42.099277) translate(9.924323, 18.099277)">
                                    <path d="M1.5215,16.5215 L1.5215,16.5215 L1.5215,6.5345 C0.6955,6.5345 0.0265,7.2035 0.0265,8.0295 L0.0265,15.0265 C0.0265,15.8525 0.6955,16.5215 1.5215,16.5215" id="Fill-103" fill="#C86151"></path>
                                    <path d="M5.2852,4.8452 C5.2852,4.0162 4.6102,3.3452 3.7772,3.3452 C2.9442,3.3452 2.2682,4.0162 2.2682,4.8452 L2.2682,38.0252 L5.2852,38.0252 L5.2852,4.8452 Z" id="Fill-104" fill="#E3B0A8"></path>
                                    <path d="M3.7773,2.9673 C4.0223,2.9673 4.2513,3.0313 4.4563,3.1343 L4.4563,1.5163 C4.4563,1.1433 4.1523,0.8413 3.7773,0.8413 C3.4023,0.8413 3.0983,1.1433 3.0983,1.5163 L3.0983,3.1343 C3.3023,3.0313 3.5313,2.9673 3.7773,2.9673" id="Fill-105" fill="#514C47"></path>
                                    <path d="M4.0869,47.0552 L5.2849,38.0252 L2.2689,38.0252 L3.4679,47.0552 C3.5159,47.4152 4.0389,47.4152 4.0869,47.0552" id="Fill-106" fill="#C86151"></path>
                                    <path d="M3.207,45.0938 L3.468,47.0548 C3.516,47.4148 4.039,47.4148 4.087,47.0548 L4.347,45.0938 L3.207,45.0938 Z" id="Fill-107" fill="#514C47"></path>
                                </g>
                                <polygon id="Kopp" fill="#50808B" points="32.7766 42.5306 1.5556 42.5306 5.2976 74.7156 29.0286 74.7156"></polygon>
                            </g>
                            <g id="Lampe" transform="translate(0.000000, 59.000000)">
                                <g id="Group-2">
                                    <path d="M89.6021698,28.5112733 C85.9129736,25.9431094 80.8239144,26.8286832 78.2347874,30.4939746 C75.6456605,34.1568061 76.5400861,39.2119564 80.2292824,41.7825802 C83.9209563,44.3482842 89.0100154,43.4627105 91.5991424,39.799879 C94.1857918,36.1370474 93.2938437,31.0818972 89.6021698,28.5112733" id="Fill-86" fill="#FDBD68"></path>
                                    <path d="M37.4640898,147.380611 C36.3937521,147.380611 35.3779224,146.755789 34.9393812,145.71524 L3.74102049,72.0182827 C3.3644202,71.1277891 3.49325714,70.1044594 4.07550101,69.3320423 L48.6580378,10.4610659 C49.5673293,9.26062149 51.2818517,9.01954863 52.4909368,9.92234189 C53.7000219,10.8226752 53.94283,12.5298647 53.0360162,13.7278492 L9.39993535,71.3516424 L39.9863206,143.609542 C40.5735198,144.992021 39.9169469,146.588514 38.5245169,147.169057 C38.1776482,147.314193 37.8183913,147.380611 37.4640898,147.380611" id="Fill-88" fill="#A0ABB7"></path>
                                    <path d="M70.7961885,9.77843616 L60.8658335,2.86112104 C55.0731264,-1.17069954 47.0852361,0.221619217 43.0219172,5.97292887 C38.9585983,11.7242385 40.3609388,19.6575036 46.1536459,23.6893241 L56.0840009,30.6041793 C54.3992101,41.2015454 58.6929489,52.3204161 68.1376877,58.8982613 L101.694756,11.3946083 C92.2500167,4.81676311 80.2607483,4.59536967 70.7961885,9.77843616" id="Fill-89" fill="#7D8D99"></path>
                                    <path d="M15.8430212,70.9666638 C15.8430212,66.7134498 12.3718567,63.2695518 8.09050606,63.2695518 C3.80915541,63.2695518 0.340468543,66.7134498 0.340468543,70.9666638 C0.340468543,75.2174179 3.80915541,78.6637759 8.09050606,78.6637759 C12.3718567,78.6637759 15.8430212,75.2174179 15.8430212,70.9666638" id="Fill-90" fill="#798E99"></path>
                                </g>
                                <path d="M69.2394004,148 L5.76059959,148 C4.23664868,148 3,146.658824 3,145 C3,143.341176 4.23664868,142 5.76059959,142 L69.2394004,142 C70.7633513,142 72,143.341176 72,145 C72,146.658824 70.7633513,148 69.2394004,148" id="Fill-87" fill="#798E99"></path>
                            </g>
                            <g id="kvinne/-forfra/-B" transform="translate(106.000000, 22.000000)">
                                <g id="hårfarge/-brunn">
                                    <mask id="mask-4" fill="white">
                                        <use xlink:href="#path-3"></use>
                                    </mask>
                                    <use id="Mask" fill="#E57F68" xlink:href="#path-3"></use>
                                    <g id="🌈" mask="url(#mask-4)" fill="#D2654C">
                                        <g transform="translate(0.000000, -4.187500)" id="hårfarge/-rød">
                                            <rect x="0" y="0" width="144.088235" height="165.40625"></rect>
                                        </g>
                                    </g>
                                </g>
                                <g id="Group" transform="translate(14.617647, 33.500000)">
                                    <path d="M29.2352941,78.8773711 C31.3680055,82.2967847 37.3580774,142.375 55.3382353,142.375 C73.322285,142.375 81.4411765,81.179734 81.4411765,77.9944123 C53.9075615,62.1797377 29.2352941,78.8773711 29.2352941,78.8773711 Z" id="Combined-Shape" fill="#E7E5E2"></path>
                                    <g id="👔Kropp" transform="translate(0.000000, 71.187500)">
                                        <mask id="mask-6" fill="white">
                                            <use xlink:href="#path-5"></use>
                                        </mask>
                                        <use id="Mask" fill="#D8A25D" xlink:href="#path-5"></use>
                                        <g id="+20/-Lilla" mask="url(#mask-6)" fill="#5C4378">
                                            <g transform="translate(-68.911765, -42.239130)" id="Fill-58">
                                                <polygon points="0 195.720109 263.117647 195.720109 263.117647 0 0 0"></polygon>
                                            </g>
                                        </g>
                                        <g id="nav-id/-kort" mask="url(#mask-6)">
                                            <g transform="translate(64.735294, 37.687500)" id="NAV-Copy-2">
                                                <g transform="translate(0.000000, -2.093750)">
                                                    <g id="Group-11">
                                                        <g id="Navansatt-dame">
                                                            <g transform="translate(0.000000, 1.570312)">
                                                                <path d="M34.9729134,25.6484375 L2.61338609,25.6484375 C1.16924829,25.6484375 0,24.4582531 0,22.9882572 L0,5.27933832 C0,3.80934238 1.16924829,2.6171875 2.61338609,2.6171875 L34.9729134,2.6171875 C36.4170512,2.6171875 37.5882353,3.80934238 37.5882353,5.27933832 L37.5882353,22.9882572 C37.5882353,24.4582531 36.4170512,25.6484375 34.9729134,25.6484375" id="Fill-97" fill="#D2242A"></path>
                                                                <path d="M26.8625027,15.1970548 C26.8625027,19.5461377 23.3293751,23.0760693 18.9695029,23.0760693 C14.6022161,23.0760693 11.0672347,19.5461377 11.0672347,15.1970548 C11.0672347,10.8479719 14.6022161,7.31804029 18.9695029,7.31804029 C23.3293751,7.31804029 26.8625027,10.8479719 26.8625027,15.1970548" id="Fill-98" fill="#FFFFFF"></path>
                                                                <polygon id="Fill-99" fill="#FFFFFF" points="8.73752073 18.6700342 7.19710672 18.6700342 8.84318089 14.6445438 10.3873023 14.6445438"></polygon>
                                                                <polygon id="Fill-100" fill="#FFFFFF" points="28.1513714 18.6700342 27.1967225 18.6700342 28.8427967 14.6445438 29.7974455 14.6445438"></polygon>
                                                                <polygon id="Fill-101" fill="#FFFFFF" points="30.7862023 18.6700342 30.3820985 18.6700342 32.0244653 14.6445438 32.4285691 14.6445438"></polygon>
                                                                <path d="M12.9698592,18.6506186 L14.1821706,18.6506186 C14.2451959,18.6506186 14.2933918,18.602542 14.2933918,18.5415217 L14.2933918,14.7749053 C14.2933918,14.713885 14.2451959,14.6658084 14.1821706,14.6658084 L12.9568834,14.6658084 C12.8753211,14.6658084 12.8160031,14.7286778 12.8160031,14.8081891 L12.3340445,15.9934621 C12.3043855,16.0544824 12.3525814,16.1284464 12.4174604,16.1284464 L12.7640999,16.1284464 C12.8160031,16.1284464 12.8604916,16.1672775 12.8604916,16.2245996 L12.8604916,18.5415217 C12.8604916,18.602542 12.9086875,18.6506186 12.9698592,18.6506186" id="Fill-102" fill="#C52D35"></path>
                                                                <path d="M15.6037632,18.6506186 L16.819782,18.6506186 C16.8828073,18.6506186 16.9365643,18.602542 16.9365643,18.5415217 L16.9365643,14.7749053 C16.9365643,14.713885 16.8828073,14.6658084 16.819782,14.6658084 L14.9290211,14.6658084 C14.8493126,14.6658084 14.7862872,14.7286778 14.7862872,14.8081891 L14.3024749,15.9934621 L14.135643,16.1284464 L15.1032677,16.1284464 C15.3182954,16.1284464 15.4943957,16.2985636 15.4943957,16.5167574 L15.4943957,18.5415217 C15.4943957,18.602542 15.5425915,18.6506186 15.6037632,18.6506186" id="Fill-103" fill="#C52D35"></path>
                                                                <path d="M21.0415544,14.6661782 L19.8255356,14.6661782 C19.764364,14.6661782 19.7143144,14.7142548 19.7143144,14.7752751 L19.7143144,18.5418916 C19.7143144,18.6029119 19.764364,18.6509885 19.8255356,18.6509885 L21.0545302,18.6509885 C21.1360924,18.6509885 21.1954104,18.5881191 21.1954104,18.5086078 L21.6773691,17.3233347 C21.7070281,17.2586163 21.6606859,17.1883505 21.5865384,17.1883505 L21.251021,17.1883505 C21.1954104,17.1883505 21.156483,17.1439721 21.156483,17.0940464 L21.156483,14.7752751 C21.156483,14.7142548 21.1008724,14.6661782 21.0415544,14.6661782" id="Fill-104" fill="#C52D35"></path>
                                                                <path d="M16.0399358,18.6506186 L16.8388749,18.6506186 C16.9167298,18.6506186 16.9797552,18.5859001 16.9797552,18.510087 L17.4617138,17.3211158 C17.4895191,17.2582464 17.443177,17.1861315 17.3727368,17.1861315 L17.0353658,17.1861315 L16.0399358,18.6506186 Z" id="Fill-105" fill="#C52D35"></path>
                                                                <path d="M24.2955168,14.6661782 L25.7413927,14.6661782 C25.8118329,14.6661782 25.8618824,14.7327458 25.8322234,14.7974643 L24.3010778,18.5899682 C24.2899557,18.6287993 24.2547357,18.6509885 24.2121009,18.6509885 L22.9033978,18.6509885 L24.2009787,14.7308967 C24.2158082,14.6920656 24.2547357,14.6661782 24.2955168,14.6661782" id="Fill-106" fill="#C52D35"></path>
                                                                <path d="M22.4826108,14.6661782 L20.4379939,14.6661782 C20.2934063,14.6661782 21.0256127,14.8067098 21.0775159,14.9379959 L22.5233919,18.5252497 C22.5530509,18.604761 22.6271984,18.6509885 22.7087606,18.6509885 L23.9488773,18.6509885 L22.6735405,14.8011625 C22.6457352,14.7161039 22.5678804,14.6661782 22.4826108,14.6661782" id="Fill-107" fill="#C52D35"></path>
                                                                <path d="M19.8129306,15.9439063 C19.8129306,16.7464156 19.7109778,16.7944922 19.7109778,16.7944922 C19.7109778,16.7944922 19.5960492,16.0252666 19.0010156,16.0252666 C18.4171042,16.0252666 18.2836387,16.365501 18.2836387,16.6188277 C18.2836387,16.9128346 18.5820823,17.1883505 18.7489142,17.1883505 L19.8129306,17.1883505 L19.1845306,18.5770245 C19.1622864,18.623252 19.1177979,18.6509885 19.0677483,18.6509885 L18.583936,18.6509885 C18.0778794,18.6509885 16.7562005,17.9890107 16.7562005,16.7075845 C16.7562005,15.4243092 17.7386547,14.6661782 18.5579844,14.6661782 C19.2345802,14.6661782 19.8129306,15.1303023 19.8129306,15.9439063 Z" id="Fill-108" fill="#C52D35"></path>
                                                                <path d="M20.7384766,6.27292905 L17.3851565,6.27292905 C17.1367625,6.27292905 16.9365643,6.07322627 16.9365643,5.82544688 L16.9365643,5.26147142 C16.9365643,5.01554114 17.1367625,4.81398926 17.3851565,4.81398926 L20.7384766,4.81398926 C20.9868706,4.81398926 21.1870688,5.01554114 21.1870688,5.26147142 L21.1870688,5.82544688 C21.1870688,6.07322627 20.9868706,6.27292905 20.7384766,6.27292905" id="Fill-109" fill="#5A1F57"></path>
                                                                <polygon id="Fill-110" fill="#C2B5CF" points="18.0910406 5.7578125 20.0337047 5.7578125 20.0337047 0.5234375 18.0910406 0.5234375"></polygon>
                                                            </g>
                                                        </g>
                                                    </g>
                                                </g>
                                            </g>
                                        </g>
                                    </g>
                                    <path d="M13.6563682,24.1214549 C13.6563682,24.1214549 13.4375093,25.367879 13.1541652,25.1628085 C12.7594376,25.0024069 12.3373526,24.9069781 11.8879103,24.9049477 C9.95139996,24.9029173 8.37639764,26.5333288 8.37248944,28.5474859 L8.35294847,42.4843954 C8.34904028,44.4985525 9.91622621,46.1330247 11.8566447,46.1370855 C12.6324213,46.1370855 13.3437127,45.8690727 13.9260336,45.424415 C18.6158668,67.8664297 35.3312141,83.7154355 55.2630053,83.7499523 C75.1947965,83.7824387 91.9629044,67.9862234 96.7172228,45.5604519 C97.2975896,46.0051095 98.008881,46.2771832 98.7866117,46.2792136 C100.725076,46.281244 102.300078,44.6508325 102.302033,42.6387058 L102.323528,28.6997659 C102.325482,26.6856088 100.758296,25.0511365 98.8198313,25.0470757 C98.3723431,25.0470757 97.9463499,25.1425045 97.5535764,25.3008758 C52.6015249,30.642859 36.9218492,0.00203040032 35.5969713,0 C35.5969713,0 16.7966024,17.6444779 13.6563682,24.1214549 Z" id="Fill-337-Copy-7" fill="#E7E5E2"></path>
                                </g>
                                <g id="Group" transform="translate(50.117647, 58.625000)">
                                    <path d="M4.85660882,12.1073187 C1.83493235,12.3355375 0.989197059,7.86956875 1.89966765,4.952975 C2.07090294,4.400225 3.07116765,1.8835375 4.84199118,1.8835375 C6.61072647,1.8835375 7.39172647,3.25913125 7.50031471,3.495725 C8.80128529,6.3390375 8.16228529,11.8560687 4.85660882,12.1073187" id="Fill-42" fill="#635E59"></path>
                                    <path d="M38.5803559,12.1073187 C41.6020324,12.3355375 42.4477676,7.86956875 41.5372971,4.952975 C41.3660618,4.400225 40.3657971,1.8835375 38.5949735,1.8835375 C36.8262382,1.8835375 36.0452382,3.25913125 35.93665,3.495725 C34.6356794,6.3390375 35.2746794,11.8560687 38.5803559,12.1073187" id="Fill-44" fill="#635E59"></path>
                                    <path d="M22.6767142,17.2417784 C24.4537721,16.9675043 25.6674249,17.139631 26.1020694,17.674467 C27.7426413,19.6960805 27.2178924,21.834857 24.4032638,23.5906135 C22.9234092,24.5133969 20.8864383,24.8381825 19.8080538,24.3596797 C19.2807347,24.1256966 18.6640769,24.3646214 18.4307101,24.8933331 C18.1973434,25.4220448 18.4356388,26.040331 18.962958,26.2743141 C20.7452558,27.0651587 23.4861408,26.6281372 25.5062463,25.368473 C29.3311597,22.9825041 30.206505,19.4147637 27.7214005,16.3524658 C26.6697627,15.0584107 24.8081859,14.7943919 22.3590035,15.1724029 C21.7890663,15.2603679 21.3981629,15.7949232 21.4858963,16.3663655 C21.5736297,16.9378078 22.106777,17.3297435 22.6767142,17.2417784 Z" id="Stroke-46" fill="#D1BFA3" fill-rule="nonzero"></path>
                                    <path d="M34.5788131,32.5063918 C34.4846292,32.722688 34.2686454,33.136822 33.9215321,33.6823231 C33.3339552,34.6057216 32.596106,35.5314764 31.6999445,36.3947629 C29.0294501,38.9672926 25.553569,40.4548394 21.1296606,40.318789 C16.8160817,40.1861316 13.3557376,38.7215397 10.6427345,36.3597883 C9.64664575,35.4926629 8.8242751,34.5640268 8.16695161,33.6383889 C7.77932842,33.0925408 7.53729424,32.678678 7.43143864,32.4630127 C7.17681584,31.9442561 6.55097555,31.7306784 6.03358523,31.9859736 C5.51619491,32.2412688 5.30317974,32.8687618 5.55780254,33.3875185 C5.71116924,33.6999807 6.00963683,34.210341 6.46585207,34.8527798 C7.21492597,35.90762 8.14640371,36.9594619 9.27367155,37.9407827 C12.336286,40.6068813 16.2502425,42.2634648 21.0656394,42.4115548 C26.0801337,42.5657677 30.0890206,40.8501144 33.146724,37.9045802 C34.1691208,36.9196891 35.0095316,35.8652536 35.6819894,34.8084618 C36.090897,34.1658488 36.3568543,33.655894 36.4926045,33.3441395 C36.7233329,32.8142649 36.4819583,32.1971805 35.9534794,31.9658429 C35.4250005,31.7345053 34.8095414,31.9765172 34.5788131,32.5063918 Z" id="Stroke-48" fill="#D19E9C" fill-rule="nonzero"></path>
                                </g>
                            </g>
                        </g>
                    </g>
                </g>
            </g>
        </g>
    </g>
</svg>