<?xml version="1.0" encoding="UTF-8"?>
<svg width="69px" height="81px" viewBox="0 0 69 81" version="1.1" xmlns="http://www.w3.org/2000/svg" xmlns:xlink="http://www.w3.org/1999/xlink">
    <!-- Generator: Sketch 48.2 (47327) - http://www.bohemiancoding.com/sketch -->
    <title>Icon Copy 7</title>
    <desc>Created with Sketch.</desc>
    <defs>
        <circle id="path-1" cx="34.5" cy="34.5" r="34.5"></circle>
        <path d="M34.5,69 C53.5538239,69 69,53.5538239 69,34.5 C69,15.4461761 53.5538239,-12.5587915 34.5,-12.5587915 C15.4461761,-12.5587915 0,15.4461761 0,34.5 C0,53.5538239 15.4461761,69 34.5,69 Z" id="path-3"></path>
        <path d="M52.2777246,26.1417284 L52.2320748,26.1417284 C52.2320748,11.7041587 41.9470709,0 29.2572658,0 C16.5691834,0 6.28417957,11.7041587 6.28417957,26.1417284 L6.28417957,26.1548027 C6.27987298,38.484787 0,45.5344769 0,45.5344769 C0,45.5344769 6.201493,53.2361411 29.2581272,53.2361411 C29.265879,53.2361411 29.2736309,53.2361411 29.2813828,53.2361411 C29.2891346,53.2361411 29.2951639,53.2361411 29.3029157,53.2361411 C52.3612725,53.2361411 58.5627655,45.5344769 58.5627655,45.5344769 C58.5627655,45.5344769 52.2777246,38.4804289 52.2777246,26.1417284" id="path-5"></path>
        <path d="M33.9708146,2.60529186 C39.1594412,5.38156281 46.7168476,12.1556443 46.7168476,18.4517887 L46.7168476,29.7871702 C46.7168476,35.3987358 42.1677749,39.9478085 36.5562093,39.9478085 L0,39.9478085 L0,18.4517887 C0,12.4074976 6.84548769,5.92274069 11.9314575,2.95735843 C12.8645947,4.56349347 15.3280217,10.9670615 22.8246258,10.9670615 C30.26618,10.9670615 33.8191916,4.19574521 33.9708146,2.60529186 Z" id="path-7"></path>
    </defs>
    <g id="Page-1" stroke="none" stroke-width="1" fill="none" fill-rule="evenodd">
        <g id="Icon-Copy-7" transform="translate(0.000000, 12.000000)">
            <mask id="mask-2" fill="white">
                <use xlink:href="#path-1"></use>
            </mask>
            <use id="Mask" fill="#C1B5D0" xlink:href="#path-1"></use>
            <mask id="mask-4" fill="white">
                <use xlink:href="#path-3"></use>
            </mask>
            <g id="Mask-Copy"></g>
            <g id="kvinne/-forfra/-B" mask="url(#mask-4)">
                <g transform="translate(4.367089, -11.354430)">
                    <g id="b/damme/-hår/-halvlangt">
                        <g id="hårfarge/-brunn">
                            <mask id="mask-6" fill="white">
                                <use xlink:href="#path-5"></use>
                            </mask>
                            <use id="Mask" fill="#E57F68" xlink:href="#path-5"></use>
                            <g id="g/hårfarge/-rød" mask="url(#mask-6)" fill="#D2654C">
                                <g transform="translate(0.000000, -1.743247)" id="hårfarge/-rød">
                                    <rect x="0" y="0" width="59.4309745" height="68.8876108"></rect>
                                </g>
                            </g>
                        </g>
                    </g>
                    <g id="Group" transform="translate(6.029229, 14.049278)">
                        <path d="M12.0584586,33.0797039 C12.9381218,34.5137424 15.408801,59.7094297 22.8249395,59.7094297 C30.2426832,59.7094297 33.5914204,34.0452721 33.5914204,32.7094074 C22.2348404,26.0770267 12.0584586,33.0797039 12.0584586,33.0797039 Z" id="Combined-Shape" fill="#E7E5E2"></path>
                        <g id="b/kropp/sideprofil/-nav-ansatt" transform="translate(0.000000, 29.854715)">
                            <mask id="mask-8" fill="white">
                                <use xlink:href="#path-7"></use>
                            </mask>
                            <use id="Mask" fill="#D8A25D" fill-rule="evenodd" xlink:href="#path-7"></use>
                            <g id="+20/-Lilla" mask="url(#mask-8)" fill-rule="evenodd" stroke-width="1">
                                <g transform="translate(-28.549185, -17.519644)">
                                    <g>
                                        <polygon id="Fill-58" fill="#5C4378" points="0 80.6874213 108.680845 80.6874213 108.680845 0 0 0"></polygon>
                                    </g>
                                </g>
                            </g>
                            <g id="nav-id/-kort" mask="url(#mask-8)" fill-rule="evenodd" stroke-width="1">
                                <g transform="translate(26.818931, 15.631751)" id="NAV-Copy-2">
                                    <g transform="translate(0.000000, -0.846720)">
                                        <g id="Group-11">
                                            <g id="Navansatt-dame">
                                                <g transform="translate(0.000000, 0.635040)">
                                                    <path d="M15.1258868,10.3723182 L1.13029709,10.3723182 C0.505703291,10.3723182 0,9.89100346 0,9.29653194 L0,2.13498296 C0,1.54051144 0.505703291,1.05839982 1.13029709,1.05839982 L15.1258868,1.05839982 C15.7504806,1.05839982 16.2570212,1.54051144 16.2570212,2.13498296 L16.2570212,9.29653194 C16.2570212,9.89100346 15.7504806,10.3723182 15.1258868,10.3723182" id="Fill-97" fill="#D2242A"></path>
                                                    <path d="M11.6181106,6.14574234 C11.6181106,7.90452673 10.0900226,9.33204348 8.20436524,9.33204348 C6.31550095,9.33204348 4.78661123,7.90452673 4.78661123,6.14574234 C4.78661123,4.38695795 6.31550095,2.9594412 8.20436524,2.9594412 C10.0900226,2.9594412 11.6181106,4.38695795 11.6181106,6.14574234" id="Fill-98" fill="#FFFFFF"></path>
                                                    <polygon id="Fill-99" fill="#FFFFFF" points="3.77900315 7.55022739 3.11276961 7.55022739 3.82470148 5.92230494 4.49253847 5.92230494"></polygon>
                                                    <polygon id="Fill-100" fill="#FFFFFF" points="12.1755501 7.55022739 11.7626617 7.55022739 12.4745935 5.92230494 12.8874819 5.92230494"></polygon>
                                                    <polygon id="Fill-101" fill="#FFFFFF" points="13.3151221 7.55022739 13.140346 7.55022739 13.8506744 5.92230494 14.0254505 5.92230494"></polygon>
                                                    <path d="M5.60950185,7.54237568 L6.13383005,7.54237568 C6.1610887,7.54237568 6.18193356,7.52293333 6.18193356,7.49825651 L6.18193356,5.9750236 C6.18193356,5.95034678 6.1610887,5.93090443 6.13383005,5.93090443 L5.60388977,5.93090443 C5.56861387,5.93090443 5.54295867,5.95632904 5.54295867,5.98848368 L5.33451015,6.46781225 C5.32168255,6.49248908 5.3425274,6.52240038 5.37058778,6.52240038 L5.52051037,6.52240038 C5.54295867,6.52240038 5.56220007,6.53810381 5.56220007,6.56128506 L5.56220007,7.49825651 C5.56220007,7.52293333 5.58304492,7.54237568 5.60950185,7.54237568" id="Fill-102" fill="#C52D35"></path>
                                                    <path d="M6.74867301,7.54237568 L7.27460466,7.54237568 C7.30186332,7.54237568 7.32511334,7.52293333 7.32511334,7.49825651 L7.32511334,5.9750236 C7.32511334,5.95034678 7.30186332,5.93090443 7.27460466,5.93090443 L6.45684508,5.93090443 C6.42237091,5.93090443 6.39511225,5.95632904 6.39511225,5.98848368 L6.18586201,6.46781225 L6.11370675,6.52240038 L6.53220724,6.52240038 C6.62520735,6.52240038 6.70137123,6.59119636 6.70137123,6.6794347 L6.70137123,7.49825651 C6.70137123,7.52293333 6.72221609,7.54237568 6.74867301,7.54237568" id="Fill-103" fill="#C52D35"></path>
                                                    <path d="M9.10053353,5.93105399 L8.57460188,5.93105399 C8.54814495,5.93105399 8.52649837,5.95049633 8.52649837,5.97517316 L8.52649837,7.49840607 C8.52649837,7.52308289 8.54814495,7.54252523 8.57460188,7.54252523 L9.10614561,7.54252523 C9.14142151,7.54252523 9.16707671,7.51710063 9.16707671,7.48494598 L9.37552523,7.00561741 C9.38835283,6.97944503 9.36830971,6.95102929 9.3362407,6.95102929 L9.19112847,6.95102929 C9.16707671,6.95102929 9.15024049,6.93308251 9.15024049,6.91289239 L9.15024049,5.97517316 C9.15024049,5.95049633 9.12618873,5.93105399 9.10053353,5.93105399" id="Fill-104" fill="#C52D35"></path>
                                                    <path d="M6.93731892,7.54237568 L7.28286243,7.54237568 C7.31653489,7.54237568 7.34379354,7.51620329 7.34379354,7.48554421 L7.55224206,7.00472007 C7.56426794,6.97929547 7.54422481,6.95013195 7.51375926,6.95013195 L7.36784529,6.95013195 L6.93731892,7.54237568 Z" id="Fill-105" fill="#C52D35"></path>
                                                    <path d="M10.5078817,5.93105399 L11.1332273,5.93105399 C11.1636928,5.93105399 11.1853394,5.95797416 11.1725118,5.98414655 L10.5102869,7.51784841 C10.5054766,7.53355184 10.4902438,7.54252523 10.4718041,7.54252523 L9.9057862,7.54252523 L10.4669938,5.95722638 C10.4734076,5.94152295 10.4902438,5.93105399 10.5078817,5.93105399" id="Fill-106" fill="#C52D35"></path>
                                                    <path d="M9.72379461,5.93105399 L8.83949185,5.93105399 C8.77695729,5.93105399 9.0936387,5.98788546 9.116087,6.04097801 L9.74143256,7.49167602 C9.75426016,7.52383067 9.78632916,7.54252523 9.82160507,7.54252523 L10.3579591,7.54252523 L9.80637229,5.98564211 C9.79434641,5.95124412 9.76067396,5.93105399 9.72379461,5.93105399" id="Fill-107" fill="#C52D35"></path>
                                                    <path d="M8.56915015,6.44777168 C8.56915015,6.77230928 8.52505527,6.79175162 8.52505527,6.79175162 C8.52505527,6.79175162 8.47534831,6.48067411 8.21799456,6.48067411 C7.96545116,6.48067411 7.90772696,6.61826609 7.90772696,6.72071229 C7.90772696,6.8396097 8.0368047,6.95102929 8.10895995,6.95102929 L8.56915015,6.95102929 L8.29736535,7.51261393 C8.28774465,7.5313085 8.26850324,7.54252523 8.24685667,7.54252523 L8.03760642,7.54252523 C7.81873548,7.54252523 7.24710549,7.27481911 7.24710549,6.75660585 C7.24710549,6.23764481 7.67201979,5.93105399 8.02638227,5.93105399 C8.31901192,5.93105399 8.56915015,6.11874739 8.56915015,6.44777168 Z" id="Fill-108" fill="#C52D35"></path>
                                                    <path d="M8.96945148,2.53679454 L7.51913081,2.53679454 C7.41169965,2.53679454 7.32511334,2.45603403 7.32511334,2.35583118 L7.32511334,2.12775752 C7.32511334,2.02830245 7.41169965,1.94679416 7.51913081,1.94679416 L8.96945148,1.94679416 C9.07688264,1.94679416 9.16346895,2.02830245 9.16346895,2.12775752 L9.16346895,2.35583118 C9.16346895,2.45603403 9.07688264,2.53679454 8.96945148,2.53679454" id="Fill-109" fill="#5A1F57"></path>
                                                    <polygon id="Fill-110" fill="#C2B5CF" points="7.82442772 2.3284796 8.66463561 2.3284796 8.66463561 0.211679963 7.82442772 0.211679963"></polygon>
                                                </g>
                                            </g>
                                        </g>
                                    </g>
                                </g>
                            </g>
                        </g>
                        <path d="M5.63273795,10.11609 C5.63273795,10.11609 5.5424669,10.6388171 5.42559812,10.5528144 C5.26278783,10.4855449 5.08869366,10.4455238 4.9033156,10.4446723 C4.10457798,10.4438208 3.45494879,11.1275851 3.45333681,11.9722852 L3.44527689,17.8171661 C3.44366491,18.6618661 4.09007013,19.3473334 4.89041974,19.3490364 C5.21039838,19.3490364 5.5037793,19.2366368 5.74396478,19.0501557 C7.67834449,28.4619197 14.5727962,35.1086982 22.7939099,35.1231739 C31.0150237,35.1367981 37.9312372,28.5121589 39.8922146,19.107207 C40.1315941,19.2936882 40.424975,19.4077908 40.7457597,19.4086423 C41.5453033,19.4094938 42.1949325,18.7257295 42.1957384,17.881881 L42.2046044,12.0361486 C42.2054103,11.1914485 41.5590051,10.5059812 40.7594615,10.5042782 C40.5748894,10.5042782 40.3991833,10.5442993 40.237179,10.6107172 C21.6961495,12.8510457 15.2288733,0.000851512168 14.682411,0 C14.682411,0 6.92796637,7.39976619 5.63273795,10.11609 Z" id="Fill-337-Copy-7" fill="#E7E5E2"></path>
                    </g>
                    <g id="b/ansikt/-kvinne/-forfra/-glad" transform="translate(14.642414, 24.586236)">
                        <g id="Group" transform="translate(5.927039, 0.000000)">
                            <path d="M1.96921636,5.18425647 C0.744012735,5.28197791 0.401091195,3.36968602 0.770261051,2.12082404 C0.839692079,1.88414094 1.24527089,0.806515602 1.96328932,0.806515602 C2.68046104,0.806515602 2.99713427,1.39553378 3.0411637,1.49684132 C3.56867017,2.71432485 3.30957389,5.07667324 1.96921636,5.18425647" id="Fill-42" fill="#635E59"></path>
                            <path d="M15.643234,5.18425647 C16.8684376,5.28197791 17.2113591,3.36968602 16.8421893,2.12082404 C16.7727582,1.88414094 16.3671794,0.806515602 15.649161,0.806515602 C14.9319893,0.806515602 14.6153161,1.39553378 14.5712866,1.49684132 C14.0437802,2.71432485 14.3028764,5.07667324 15.643234,5.18425647" id="Fill-44" fill="#635E59"></path>
                            <path d="M9.19476083,7.38279078 C9.91530713,7.2653488 10.4074087,7.3390521 10.5836447,7.56806456 C11.2488498,8.43370321 11.0360791,9.34951007 9.89482746,10.1013109 C9.29478864,10.4964393 8.46885502,10.6355099 8.03160087,10.4306188 C7.817788,10.3304292 7.56775086,10.4327348 7.4731273,10.6591249 C7.37850373,10.885515 7.47512575,11.1502602 7.68893862,11.2504499 C8.41160955,11.5890832 9.52296026,11.4019541 10.3420554,10.862576 C11.8929487,9.84092332 12.2478763,8.31324558 11.2402373,7.00199428 C10.8138281,6.44789031 10.0590118,6.33483956 9.06593821,6.49670082 C8.83484495,6.53436676 8.67634477,6.76325903 8.71191815,7.00794601 C8.74749154,7.252633 8.96366757,7.42045672 9.19476083,7.38279078 Z" id="Stroke-46" fill="#D1BFA3" fill-rule="nonzero"></path>
                            <path d="M14.0207225,13.9189754 C13.9825336,14.0115917 13.8949583,14.1889206 13.7542138,14.4224997 C13.5159681,14.8178915 13.2167913,15.2142923 12.8534234,15.5839446 C11.7706141,16.6854811 10.3612434,17.3224367 8.56747473,17.264181 C6.81844151,17.2073782 5.4153707,16.5802518 4.31532529,15.5689688 C3.91143972,15.1976727 3.57799188,14.8000382 3.31146595,14.4036875 C3.1542958,14.1699597 3.05615784,13.992747 3.01323642,13.9004009 C2.90999413,13.6782734 2.65623375,13.5868212 2.44644673,13.6961365 C2.23665971,13.8054519 2.15028813,14.0741394 2.25353042,14.2962668 C2.31571624,14.4300606 2.43673634,14.6485928 2.6217186,14.9236799 C2.9254467,15.375354 3.30313436,15.8257442 3.76020932,16.2459379 C5.00201213,17.3875398 6.58900986,18.0968756 8.54151598,18.1602865 C10.5747504,18.2263192 12.2002397,17.4916903 13.4400512,16.2304362 C13.8546039,15.8087138 14.1953666,15.357213 14.468029,14.9047033 C14.6338294,14.6295416 14.7416675,14.411183 14.7967103,14.2776922 C14.8902641,14.0508042 14.7923936,13.7865736 14.5781105,13.6875167 C14.3638273,13.5884598 14.1142762,13.6920874 14.0207225,13.9189754 Z" id="Stroke-48" fill="#D19E9C" fill-rule="nonzero"></path>
                        </g>
                    </g>
                </g>
            </g>
        </g>
    </g>
</svg>