<svg width="69" height="81" xmlns="http://www.w3.org/2000/svg" xmlns:xlink="http://www.w3.org/1999/xlink">
  <defs>
    <circle id="a" cx="34.5" cy="34.5" r="34.5"/>
    <path d="M34.5 69C53.554 69 69 53.554 69 34.5c0-19.054-15.446-47.059-34.5-47.059C15.446-12.559 0 15.446 0 34.5S15.446 69 34.5 69z" id="b"/>
    <path d="M52.278 26.142h-.046C52.232 11.704 41.947 0 29.257 0 16.57 0 6.284 11.704 6.284 26.142v.013C6.28 38.485 0 45.535 0 45.535s6.201 7.701 29.258 7.701h.045c23.058 0 29.26-7.702 29.26-7.702s-6.285-7.054-6.285-19.392" id="d"/>
    <path d="M33.97 2.605c5.19 2.777 12.747 9.55 12.747 15.847v11.335c0 5.612-4.55 10.16-10.16 10.16H0V18.453c0-6.045 6.845-12.53 11.931-15.495.934 1.606 3.397 8.01 10.894 8.01 7.441 0 10.994-6.771 11.146-8.362z" id="f"/>
  </defs>
  <g transform="translate(0 12)" fill="none" fill-rule="evenodd">
    <use fill="#C1B5D0" xlink:href="#a"/>
    <mask id="c" fill="#fff">
      <use xlink:href="#b"/>
    </mask>
    <g mask="url(#c)">
      <g transform="translate(4.367 -11.354)">
        <mask id="e" fill="#fff">
          <use xlink:href="#d"/>
        </mask>
        <use fill="#E57F68" xlink:href="#d"/>
        <g mask="url(#e)" fill="#D2654C">
          <path d="M0-1.743h59.431v68.888H0z"/>
        </g>
      </g>
      <path d="M22.455 35.775c.88 1.434 3.35 26.63 10.766 26.63 7.418 0 10.767-25.665 10.767-27-11.357-6.633-21.533.37-21.533.37z" fill="#E7E5E2"/>
      <g transform="translate(10.396 32.55)">
        <mask id="g" fill="#fff">
          <use xlink:href="#f"/>
        </mask>
        <use fill="#D8A25D" xlink:href="#f"/>
        <g mask="url(#g)">
          <path fill="#5C4378" d="M-28.55 63.168H80.133V-17.52H-28.55z"/>
        </g>
        <g mask="url(#g)">
          <path d="M41.945 25.792H27.949c-.624 0-1.13-.48-1.13-1.075v-7.162c0-.594.506-1.077 1.13-1.077h13.996c.624 0 1.131.483 1.131 1.077v7.162c0 .594-.507 1.075-1.131 1.075" fill="#D2242A"/>
          <path d="M38.437 21.566c0 1.759-1.528 3.186-3.414 3.186-1.889 0-3.417-1.427-3.417-3.186s1.528-3.186 3.417-3.186c1.886 0 3.414 1.427 3.414 3.186M30.598 22.97h-.666l.712-1.628h.667zM38.994 22.97h-.412l.712-1.628h.412zM40.134 22.97h-.175l.71-1.628h.175z" fill="#FFF"/>
          <path d="M32.428 22.962h.525c.027 0 .048-.019.048-.044v-1.523c0-.025-.021-.044-.048-.044h-.53c-.035 0-.061.025-.061.058l-.209.479c-.012.025.008.054.037.054h.15c.022 0 .041.016.041.04v.936c0 .025.021.044.047.044" fill="#C52D35"/>
          <path d="M33.568 22.962h.526c.027 0 .05-.019.05-.044v-1.523c0-.025-.023-.044-.05-.044h-.818c-.035 0-.062.025-.062.058l-.21.479-.071.054h.418c.093 0 .17.07.17.158v.818c0 .025.02.044.047.044M35.92 21.351h-.526c-.027 0-.049.02-.049.044v1.523c0 .025.022.045.049.045h.531c.035 0 .061-.026.061-.058l.208-.48c.013-.025-.007-.054-.039-.054h-.145c-.024 0-.04-.018-.04-.038v-.938c0-.024-.025-.044-.05-.044" fill="#C52D35"/>
          <path d="M33.756 22.962h.346c.033 0 .06-.026.06-.056l.21-.481c.011-.026-.009-.055-.04-.055h-.145l-.43.592zM37.327 21.351h.625c.03 0 .052.027.04.053l-.663 1.534c-.005.016-.02.025-.038.025h-.566l.56-1.586a.044.044 0 0 1 .042-.026" fill="#C52D35"/>
          <path d="M36.543 21.351h-.885c-.062 0 .255.057.277.11l.625 1.45c.013.033.045.052.08.052h.537l-.552-1.557a.085.085 0 0 0-.082-.055M35.388 21.868c0 .324-.044.344-.044.344s-.05-.311-.307-.311c-.253 0-.31.137-.31.24 0 .119.129.23.2.23h.461l-.272.562a.056.056 0 0 1-.05.03h-.21c-.218 0-.79-.268-.79-.786a.81.81 0 0 1 .78-.826c.292 0 .542.188.542.517z" fill="#C52D35"/>
          <path d="M35.788 17.957h-1.45c-.107 0-.194-.08-.194-.181v-.228c0-.1.087-.181.194-.181h1.45c.108 0 .194.081.194.18v.229c0 .1-.086.18-.194.18" fill="#5A1F57"/>
          <path fill="#C2B5CF" d="M34.643 17.749h.84v-2.117h-.84z"/>
        </g>
      </g>
      <path d="M16.03 12.81s-.091.524-.208.438a1.375 1.375 0 0 0-.522-.108c-.8-.001-1.449.682-1.45 1.527l-.008 5.845c-.002.845.644 1.53 1.445 1.532.32 0 .613-.113.853-.299 1.935 9.412 8.83 16.059 17.05 16.073 8.221.014 15.138-6.611 17.099-16.016.239.187.532.3.853.301.8.001 1.45-.682 1.45-1.526l.009-5.846c0-.845-.646-1.53-1.445-1.532-.185 0-.36.04-.523.107-18.54 2.24-25.008-10.61-25.554-10.611 0 0-7.755 7.4-9.05 10.116z" fill="#E7E5E2"/>
      <g>
        <path d="M26.906 18.416c-1.225.098-1.568-1.815-1.2-3.063.07-.237.476-1.315 1.194-1.315.717 0 1.034.59 1.078.69.527 1.218.268 3.58-1.072 3.688M40.58 18.416c1.225.098 1.568-1.815 1.199-3.063-.07-.237-.475-1.315-1.193-1.315-.717 0-1.034.59-1.078.69-.528 1.218-.269 3.58 1.072 3.688" fill="#635E59"/>
        <path d="M34.131 20.615c.72-.118 1.213-.044 1.39.185.664.866.452 1.781-.69 2.533-.6.395-1.426.534-1.863.33a.414.414 0 0 0-.558.228.459.459 0 0 0 .215.591c.723.339 1.835.152 2.654-.388 1.55-1.021 1.905-2.549.898-3.86-.427-.554-1.181-.667-2.175-.505a.445.445 0 0 0-.354.51.427.427 0 0 0 .483.376z" fill="#D1BFA3" fill-rule="nonzero"/>
        <path d="M38.957 27.15a4.16 4.16 0 0 1-.266.504 6.298 6.298 0 0 1-.901 1.162c-1.083 1.101-2.492 1.738-4.286 1.68-1.749-.057-3.152-.684-4.252-1.695a6.563 6.563 0 0 1-1.004-1.166 4.126 4.126 0 0 1-.298-.503.413.413 0 0 0-.567-.204.46.46 0 0 0-.193.6c.062.134.183.352.368.627.304.452.682.903 1.139 1.323 1.242 1.141 2.829 1.85 4.781 1.914 2.033.066 3.659-.669 4.899-1.93a7.18 7.18 0 0 0 1.028-1.325c.165-.276.273-.494.328-.628a.459.459 0 0 0-.218-.59.415.415 0 0 0-.558.232z" fill="#D19E9C" fill-rule="nonzero"/>
      </g>
    </g>
  </g>
</svg>