<svg width="49" height="49" xmlns="http://www.w3.org/2000/svg" xmlns:xlink="http://www.w3.org/1999/xlink">
  <defs>
    <circle id="a" cx="24.5" cy="24.5" r="24.5"/>
    <path d="M31.24 15.37h-.027C31.213 6.883 25.067 0 17.483 0 9.902 0 3.756 6.882 3.756 15.37v.009C3.753 22.629 0 26.774 0 26.774s3.706 4.528 17.484 4.528h.027c13.779 0 17.485-4.528 17.485-4.528S31.24 22.626 31.24 15.37" id="c"/>
    <path d="M20.36 1.5C23.47 3.098 28 6.999 28 10.624V11c0 6.627-5.373 12-12 12H0V10.624c0-3.48 4.103-7.214 7.151-8.921.56.924 2.036 4.611 6.53 4.611 4.46 0 6.589-3.898 6.68-4.814z" id="e"/>
  </defs>
  <g fill="none" fill-rule="evenodd">
    <mask id="b" fill="#fff">
      <use xlink:href="#a"/>
    </mask>
    <use fill="#FFD399" xlink:href="#a"/>
    <g mask="url(#b)">
      <g transform="translate(7.146 2.042)">
        <mask id="d" fill="#fff">
          <use xlink:href="#c"/>
        </mask>
        <use fill="#E57F68" xlink:href="#c"/>
        <g mask="url(#d)" fill="#D2654C">
          <path d="M0-1.025h36v40H0z"/>
        </g>
      </g>
      <path d="M17.955 29.437c.525.834 2.002 15.48 6.433 15.48 4.433 0 6.434-14.919 6.434-15.695-6.786-3.855-12.867.215-12.867.215z" fill="#E7E5E2"/>
      <g transform="translate(10.749 27.563)">
        <mask id="f" fill="#fff">
          <use xlink:href="#e"/>
        </mask>
        <use fill="#D8A25D" xlink:href="#e"/>
        <g mask="url(#f)">
          <path fill="#5C4378" d="M-17.111 36.913h65v-47h-65z"/>
        </g>
        <g mask="url(#f)">
          <path d="M24.448 15H16.7a.63.63 0 0 1-.626-.635v-4.23A.63.63 0 0 1 16.7 9.5h7.748c.346 0 .626.285.626.636v4.229a.63.63 0 0 1-.626.635" fill="#D2242A"/>
          <path d="M22.506 12.504a1.886 1.886 0 0 1-1.89 1.882 1.887 1.887 0 0 1-1.892-1.882c0-1.038.846-1.881 1.892-1.881 1.044 0 1.89.843 1.89 1.881M18.166 13.334h-.369l.394-.962h.37zM22.815 13.334h-.229l.394-.962h.229zM23.445 13.334h-.096l.393-.962h.097z" fill="#FFF"/>
          <path d="M19.18 13.329h.29a.026.026 0 0 0 .026-.026v-.9a.026.026 0 0 0-.026-.026h-.294a.033.033 0 0 0-.033.034l-.116.283a.023.023 0 0 0 .02.033h.083c.013 0 .023.009.023.023v.553c0 .014.012.026.027.026" fill="#C52D35"/>
          <path d="M19.81 13.329h.291c.015 0 .028-.012.028-.026v-.9c0-.014-.013-.026-.028-.026h-.452a.034.034 0 0 0-.035.034l-.115.283-.04.033h.231c.052 0 .094.04.094.092v.484c0 .014.012.026.026.026M21.112 12.377h-.291a.026.026 0 0 0-.027.026v.9c0 .014.012.026.027.026h.294c.02 0 .034-.015.034-.034l.115-.283c.008-.016-.004-.032-.021-.032h-.08a.022.022 0 0 1-.023-.023v-.554c0-.014-.014-.026-.028-.026" fill="#C52D35"/>
          <path d="M19.915 13.329h.19a.034.034 0 0 0 .035-.034l.115-.284a.023.023 0 0 0-.021-.032h-.081l-.238.35zM21.891 12.377h.347c.016 0 .028.016.021.032l-.366.905c-.003.01-.011.015-.022.015h-.313l.31-.936a.025.025 0 0 1 .023-.016" fill="#C52D35"/>
          <path d="M21.457 12.377h-.49c-.034 0 .141.034.154.065l.346.857c.007.019.025.03.044.03h.297l-.305-.92a.047.047 0 0 0-.046-.032M20.818 12.683c0 .191-.024.203-.024.203s-.028-.184-.17-.184c-.14 0-.172.081-.172.142 0 .07.071.136.111.136h.255l-.15.331a.03.03 0 0 1-.028.018h-.116c-.121 0-.438-.158-.438-.464 0-.307.235-.488.432-.488.162 0 .3.111.3.305z" fill="#C52D35"/>
          <path d="M21.04 10.373h-.803a.107.107 0 0 1-.108-.107v-.135c0-.058.048-.106.108-.106h.803c.06 0 .107.048.107.106v.135c0 .06-.048.107-.107.107" fill="#5A1F57"/>
          <path fill="#C2B5CF" d="M20.406 10.25h.465V9h-.465z"/>
        </g>
      </g>
      <path d="M14.115 16.089s-.054.304-.124.254a.841.841 0 0 0-.312-.063.878.878 0 0 0-.867.888l-.004 3.397a.877.877 0 0 0 .863.89.842.842 0 0 0 .51-.173c1.156 5.47 5.276 9.335 10.189 9.343 4.913.008 9.046-3.843 10.218-9.31a.845.845 0 0 0 .51.175.877.877 0 0 0 .866-.887l.005-3.398a.878.878 0 0 0-.863-.89.84.84 0 0 0-.312.061c-11.08 1.302-14.945-6.167-15.271-6.168 0 0-4.634 4.302-5.408 5.88z" fill="#E7E5E2"/>
      <g>
        <path d="M20.9 18.379c-.724.039-.926-.725-.709-1.224.042-.095.281-.525.705-.525.424 0 .611.235.637.276.311.486.158 1.43-.633 1.473M28.475 18.379c.723.039.926-.725.708-1.224-.041-.095-.28-.525-.705-.525-.423 0-.61.235-.636.276-.312.486-.16 1.43.633 1.473" fill="#635E59"/>
        <path d="M25.128 19.704c.433-.067.854-.05 1.052.192.483.593.344 1.278-.468 1.783-.406.253-.981.356-1.334.2" stroke="#D1BFA3" stroke-linecap="round"/>
        <path d="M21.785 24.692s.37.426 1.397.418l1.028-.008" stroke="#D19E9C" stroke-linecap="round"/>
      </g>
    </g>
  </g>
</svg>
